<svg width="15" height="32" viewBox="0 0 15 32" fill="none" xmlns="http://www.w3.org/2000/svg" preserveAspectRatio="none">
<path d="M0 32V0H7.63636C9.50649 0 10.9351 0.355556 11.9221 1.06667C12.9351 1.75144 13.6234 2.69959 13.987 3.91111C14.3766 5.0963 14.5714 6.42634 14.5714 7.90124C14.5714 9.08642 14.4416 10.2189 14.1818 11.2988C13.9481 12.3786 13.4935 13.3004 12.8182 14.0642C12.1688 14.8016 11.2078 15.2757 9.93507 15.4864L15 32H12.8961L7.98701 15.8815H2.1039V32H0ZM2.1039 14.2222H7.55844C8.90909 14.2222 9.93507 13.972 10.6364 13.4716C11.3377 12.9449 11.8182 12.2074 12.0779 11.2593C12.3636 10.3111 12.5065 9.19177 12.5065 7.90124C12.5065 5.87325 12.1688 4.33251 11.4935 3.27901C10.8442 2.22552 9.51948 1.69877 7.51948 1.69877H2.1039V14.2222Z" fill="black"/>
</svg>
