<svg width="1899" height="26" viewBox="0 0 1899 26" fill="none" xmlns="http://www.w3.org/2000/svg">
<path d="M5.01601 25.288C3.56535 25.288 2.41335 24.8187 1.56001 23.88C0.706679 22.92 0.216013 21.6293 0.0880127 20.008L1.52801 19.592C1.63468 21.1493 1.98668 22.28 2.58401 22.984C3.20268 23.6667 4.03468 24.008 5.08001 24.008C6.01868 24.008 6.74401 23.752 7.25601 23.24C7.76801 22.7067 8.02401 21.96 8.02401 21C8.02401 20.3387 7.80001 19.656 7.35201 18.952C6.92535 18.2267 6.24268 17.4693 5.30401 16.68L3.16001 14.856C2.24268 14.0667 1.57068 13.32 1.14401 12.616C0.717346 11.8907 0.504013 11.0693 0.504013 10.152C0.504013 9.29867 0.674679 8.584 1.01601 8.008C1.37868 7.432 1.86935 6.99467 2.48801 6.696C3.12801 6.376 3.86401 6.216 4.69601 6.216C6.08268 6.216 7.11735 6.65333 7.80001 7.528C8.48268 8.40267 8.84535 9.576 8.88801 11.048L7.64001 11.432C7.61868 10.472 7.48001 9.704 7.22401 9.128C6.98935 8.552 6.65868 8.136 6.23201 7.88C5.82668 7.624 5.34668 7.496 4.79201 7.496C3.98135 7.496 3.32001 7.70933 2.80801 8.136C2.31735 8.54133 2.07201 9.14933 2.07201 9.96C2.07201 10.6427 2.20001 11.24 2.45601 11.752C2.73335 12.2427 3.23468 12.8187 3.96001 13.48L6.16801 15.432C6.72268 15.9013 7.25601 16.4027 7.76801 16.936C8.28001 17.4693 8.69601 18.0667 9.01601 18.728C9.35735 19.368 9.52801 20.136 9.52801 21.032C9.52801 21.928 9.33601 22.696 8.95201 23.336C8.58935 23.9547 8.06668 24.4347 7.38401 24.776C6.72268 25.1173 5.93335 25.288 5.01601 25.288Z" fill="white"/>
<path d="M16.2943 25.192C15.4409 25.192 14.8009 25.0213 14.3743 24.68C13.9476 24.3387 13.6703 23.88 13.5423 23.304C13.4143 22.728 13.3503 22.0773 13.3503 21.352V7.624H10.9183V6.504H13.3503V0.584H15.0463V6.504H18.1823V7.624H15.0463V21.128C15.0463 22.1307 15.1423 22.8347 15.3343 23.24C15.5263 23.6453 15.9636 23.848 16.6463 23.848C16.8596 23.848 17.0836 23.8373 17.3183 23.816C17.5743 23.7733 17.8089 23.7307 18.0223 23.688V25C17.7663 25.064 17.4783 25.1067 17.1583 25.128C16.8383 25.1707 16.5503 25.192 16.2943 25.192Z" fill="white"/>
<path d="M23.7405 25.288C22.9938 25.288 22.3432 25.1173 21.7885 24.776C21.2338 24.4347 20.7965 23.9653 20.4765 23.368C20.1778 22.7493 20.0285 22.0453 20.0285 21.256C20.0285 20.4667 20.1245 19.784 20.3165 19.208C20.5298 18.6107 20.9032 18.056 21.4365 17.544C21.9698 17.032 22.7272 16.4987 23.7085 15.944C24.7112 15.368 26.0018 14.7067 27.5805 13.96V12.648C27.5805 11.304 27.4952 10.2587 27.3245 9.512C27.1752 8.76533 26.9085 8.24266 26.5245 7.944C26.1618 7.64533 25.6605 7.496 25.0205 7.496C24.5298 7.496 24.0605 7.58133 23.6125 7.752C23.1645 7.92267 22.7912 8.264 22.4925 8.776C22.2152 9.26667 22.0765 10.0027 22.0765 10.984V11.464H20.4125C20.4125 9.69333 20.7645 8.38133 21.4685 7.528C22.1938 6.65333 23.3992 6.216 25.0845 6.216C26.6418 6.216 27.7298 6.70667 28.3485 7.688C28.9672 8.66933 29.2765 10.2587 29.2765 12.456V21.768C29.2765 21.9387 29.2765 22.2693 29.2765 22.76C29.2978 23.2293 29.3085 23.688 29.3085 24.136C29.3298 24.584 29.3512 24.872 29.3725 25H27.9005C27.8578 24.552 27.8045 24.0827 27.7405 23.592C27.6765 23.1013 27.6338 22.7493 27.6125 22.536C27.3352 23.304 26.8552 23.9547 26.1725 24.488C25.4898 25.0213 24.6792 25.288 23.7405 25.288ZM24.1565 23.88C24.6898 23.88 25.1698 23.7627 25.5965 23.528C26.0232 23.272 26.4072 22.952 26.7485 22.568C27.0898 22.1627 27.3672 21.736 27.5805 21.288V15.208C26.4498 15.8053 25.5005 16.3173 24.7325 16.744C23.9858 17.1707 23.3885 17.576 22.9405 17.96C22.5138 18.344 22.2045 18.7813 22.0125 19.272C21.8205 19.7413 21.7245 20.3173 21.7245 21C21.7245 22.1093 21.9805 22.8667 22.4925 23.272C23.0045 23.6773 23.5592 23.88 24.1565 23.88Z" fill="white"/>
<path d="M36.763 25.192C35.9097 25.192 35.2697 25.0213 34.843 24.68C34.4163 24.3387 34.139 23.88 34.011 23.304C33.883 22.728 33.819 22.0773 33.819 21.352V7.624H31.387V6.504H33.819V0.584H35.515V6.504H38.651V7.624H35.515V21.128C35.515 22.1307 35.611 22.8347 35.803 23.24C35.995 23.6453 36.4323 23.848 37.115 23.848C37.3283 23.848 37.5523 23.8373 37.787 23.816C38.043 23.7733 38.2777 23.7307 38.491 23.688V25C38.235 25.064 37.947 25.1067 37.627 25.128C37.307 25.1707 37.019 25.192 36.763 25.192Z" fill="white"/>
<path d="M41.3613 25V6.504H43.0893V25H41.3613ZM41.3613 4.072V1.128H43.0893V4.072H41.3613Z" fill="white"/>
<path d="M51.4558 25.288C50.2398 25.288 49.2904 25.0213 48.6078 24.488C47.9464 23.9547 47.4771 23.1653 47.1998 22.12C46.9438 21.0747 46.8158 19.784 46.8158 18.248V13.256C46.8158 11.72 46.9438 10.4293 47.1998 9.384C47.4771 8.33867 47.9464 7.54933 48.6078 7.016C49.2904 6.48267 50.2398 6.216 51.4558 6.216C52.6931 6.216 53.6424 6.48267 54.3038 7.016C54.9864 7.54933 55.4558 8.33867 55.7118 9.384C55.9891 10.408 56.1278 11.6987 56.1278 13.256V18.248C56.1278 19.784 55.9891 21.0747 55.7118 22.12C55.4558 23.1653 54.9864 23.9547 54.3038 24.488C53.6424 25.0213 52.6931 25.288 51.4558 25.288ZM51.4558 24.008C52.3518 24.008 53.0131 23.784 53.4398 23.336C53.8664 22.8667 54.1331 22.2053 54.2398 21.352C54.3678 20.4987 54.4318 19.4853 54.4318 18.312V13.192C54.4318 11.9973 54.3678 10.984 54.2398 10.152C54.1331 9.29867 53.8664 8.648 53.4398 8.2C53.0131 7.73067 52.3518 7.496 51.4558 7.496C50.5598 7.496 49.8984 7.73067 49.4718 8.2C49.0664 8.648 48.7998 9.29867 48.6718 10.152C48.5651 10.984 48.5118 11.9973 48.5118 13.192V18.312C48.5118 19.4853 48.5651 20.4987 48.6718 21.352C48.7998 22.2053 49.0664 22.8667 49.4718 23.336C49.8984 23.784 50.5598 24.008 51.4558 24.008Z" fill="white"/>
<path d="M59.4178 25V6.504H61.1138V8.488C61.6898 7.80533 62.3511 7.26133 63.0978 6.856C63.8444 6.42933 64.6444 6.216 65.4978 6.216C66.0524 6.216 66.5431 6.35467 66.9698 6.632C67.4178 6.888 67.7698 7.31467 68.0258 7.912C68.2818 8.488 68.4098 9.26667 68.4098 10.248V25H66.7138V10.44C66.7138 9.30933 66.5324 8.54133 66.1698 8.136C65.8284 7.73067 65.3591 7.528 64.7618 7.528C64.1431 7.528 63.5138 7.72 62.8738 8.104C62.2551 8.46667 61.6684 8.95733 61.1138 9.576V25H59.4178Z" fill="white"/>
<path d="M127.016 25.288C125.565 25.288 124.413 24.8187 123.56 23.88C122.707 22.92 122.216 21.6293 122.088 20.008L123.528 19.592C123.635 21.1493 123.987 22.28 124.584 22.984C125.203 23.6667 126.035 24.008 127.08 24.008C128.019 24.008 128.744 23.752 129.256 23.24C129.768 22.7067 130.024 21.96 130.024 21C130.024 20.3387 129.8 19.656 129.352 18.952C128.925 18.2267 128.243 17.4693 127.304 16.68L125.16 14.856C124.243 14.0667 123.571 13.32 123.144 12.616C122.717 11.8907 122.504 11.0693 122.504 10.152C122.504 9.29867 122.675 8.584 123.016 8.008C123.379 7.432 123.869 6.99467 124.488 6.696C125.128 6.376 125.864 6.216 126.696 6.216C128.083 6.216 129.117 6.65333 129.8 7.528C130.483 8.40267 130.845 9.576 130.888 11.048L129.64 11.432C129.619 10.472 129.48 9.704 129.224 9.128C128.989 8.552 128.659 8.136 128.232 7.88C127.827 7.624 127.347 7.496 126.792 7.496C125.981 7.496 125.32 7.70933 124.808 8.136C124.317 8.54133 124.072 9.14933 124.072 9.96C124.072 10.6427 124.2 11.24 124.456 11.752C124.733 12.2427 125.235 12.8187 125.96 13.48L128.168 15.432C128.723 15.9013 129.256 16.4027 129.768 16.936C130.28 17.4693 130.696 18.0667 131.016 18.728C131.357 19.368 131.528 20.136 131.528 21.032C131.528 21.928 131.336 22.696 130.952 23.336C130.589 23.9547 130.067 24.4347 129.384 24.776C128.723 25.1173 127.933 25.288 127.016 25.288Z" fill="white"/>
<path d="M138.294 25.192C137.441 25.192 136.801 25.0213 136.374 24.68C135.948 24.3387 135.67 23.88 135.542 23.304C135.414 22.728 135.35 22.0773 135.35 21.352V7.624H132.918V6.504H135.35V0.584H137.046V6.504H140.182V7.624H137.046V21.128C137.046 22.1307 137.142 22.8347 137.334 23.24C137.526 23.6453 137.964 23.848 138.646 23.848C138.86 23.848 139.084 23.8373 139.318 23.816C139.574 23.7733 139.809 23.7307 140.022 23.688V25C139.766 25.064 139.478 25.1067 139.158 25.128C138.838 25.1707 138.55 25.192 138.294 25.192Z" fill="white"/>
<path d="M145.741 25.288C144.994 25.288 144.343 25.1173 143.789 24.776C143.234 24.4347 142.797 23.9653 142.477 23.368C142.178 22.7493 142.029 22.0453 142.029 21.256C142.029 20.4667 142.125 19.784 142.317 19.208C142.53 18.6107 142.903 18.056 143.437 17.544C143.97 17.032 144.727 16.4987 145.709 15.944C146.711 15.368 148.002 14.7067 149.581 13.96V12.648C149.581 11.304 149.495 10.2587 149.325 9.512C149.175 8.76533 148.909 8.24266 148.525 7.944C148.162 7.64533 147.661 7.496 147.021 7.496C146.53 7.496 146.061 7.58133 145.613 7.752C145.165 7.92267 144.791 8.264 144.493 8.776C144.215 9.26667 144.077 10.0027 144.077 10.984V11.464H142.413C142.413 9.69333 142.765 8.38133 143.469 7.528C144.194 6.65333 145.399 6.216 147.085 6.216C148.642 6.216 149.73 6.70667 150.349 7.688C150.967 8.66933 151.277 10.2587 151.277 12.456V21.768C151.277 21.9387 151.277 22.2693 151.277 22.76C151.298 23.2293 151.309 23.688 151.309 24.136C151.33 24.584 151.351 24.872 151.373 25H149.901C149.858 24.552 149.805 24.0827 149.741 23.592C149.677 23.1013 149.634 22.7493 149.613 22.536C149.335 23.304 148.855 23.9547 148.173 24.488C147.49 25.0213 146.679 25.288 145.741 25.288ZM146.157 23.88C146.69 23.88 147.17 23.7627 147.597 23.528C148.023 23.272 148.407 22.952 148.749 22.568C149.09 22.1627 149.367 21.736 149.581 21.288V15.208C148.45 15.8053 147.501 16.3173 146.733 16.744C145.986 17.1707 145.389 17.576 144.941 17.96C144.514 18.344 144.205 18.7813 144.013 19.272C143.821 19.7413 143.725 20.3173 143.725 21C143.725 22.1093 143.981 22.8667 144.493 23.272C145.005 23.6773 145.559 23.88 146.157 23.88Z" fill="white"/>
<path d="M158.763 25.192C157.91 25.192 157.27 25.0213 156.843 24.68C156.416 24.3387 156.139 23.88 156.011 23.304C155.883 22.728 155.819 22.0773 155.819 21.352V7.624H153.387V6.504H155.819V0.584H157.515V6.504H160.651V7.624H157.515V21.128C157.515 22.1307 157.611 22.8347 157.803 23.24C157.995 23.6453 158.432 23.848 159.115 23.848C159.328 23.848 159.552 23.8373 159.787 23.816C160.043 23.7733 160.278 23.7307 160.491 23.688V25C160.235 25.064 159.947 25.1067 159.627 25.128C159.307 25.1707 159.019 25.192 158.763 25.192Z" fill="white"/>
<path d="M163.361 25V6.504H165.089V25H163.361ZM163.361 4.072V1.128H165.089V4.072H163.361Z" fill="white"/>
<path d="M173.456 25.288C172.24 25.288 171.29 25.0213 170.608 24.488C169.946 23.9547 169.477 23.1653 169.2 22.12C168.944 21.0747 168.816 19.784 168.816 18.248V13.256C168.816 11.72 168.944 10.4293 169.2 9.384C169.477 8.33867 169.946 7.54933 170.608 7.016C171.29 6.48267 172.24 6.216 173.456 6.216C174.693 6.216 175.642 6.48267 176.304 7.016C176.986 7.54933 177.456 8.33867 177.712 9.384C177.989 10.408 178.128 11.6987 178.128 13.256V18.248C178.128 19.784 177.989 21.0747 177.712 22.12C177.456 23.1653 176.986 23.9547 176.304 24.488C175.642 25.0213 174.693 25.288 173.456 25.288ZM173.456 24.008C174.352 24.008 175.013 23.784 175.44 23.336C175.866 22.8667 176.133 22.2053 176.24 21.352C176.368 20.4987 176.432 19.4853 176.432 18.312V13.192C176.432 11.9973 176.368 10.984 176.24 10.152C176.133 9.29867 175.866 8.648 175.44 8.2C175.013 7.73067 174.352 7.496 173.456 7.496C172.56 7.496 171.898 7.73067 171.472 8.2C171.066 8.648 170.8 9.29867 170.672 10.152C170.565 10.984 170.512 11.9973 170.512 13.192V18.312C170.512 19.4853 170.565 20.4987 170.672 21.352C170.8 22.2053 171.066 22.8667 171.472 23.336C171.898 23.784 172.56 24.008 173.456 24.008Z" fill="white"/>
<path d="M181.418 25V6.504H183.114V8.488C183.69 7.80533 184.351 7.26133 185.098 6.856C185.844 6.42933 186.644 6.216 187.498 6.216C188.052 6.216 188.543 6.35467 188.97 6.632C189.418 6.888 189.77 7.31467 190.026 7.912C190.282 8.488 190.41 9.26667 190.41 10.248V25H188.714V10.44C188.714 9.30933 188.532 8.54133 188.17 8.136C187.828 7.73067 187.359 7.528 186.762 7.528C186.143 7.528 185.514 7.72 184.874 8.104C184.255 8.46667 183.668 8.95733 183.114 9.576V25H181.418Z" fill="white"/>
<path d="M249.016 25.288C247.565 25.288 246.413 24.8187 245.56 23.88C244.707 22.92 244.216 21.6293 244.088 20.008L245.528 19.592C245.635 21.1493 245.987 22.28 246.584 22.984C247.203 23.6667 248.035 24.008 249.08 24.008C250.019 24.008 250.744 23.752 251.256 23.24C251.768 22.7067 252.024 21.96 252.024 21C252.024 20.3387 251.8 19.656 251.352 18.952C250.925 18.2267 250.243 17.4693 249.304 16.68L247.16 14.856C246.243 14.0667 245.571 13.32 245.144 12.616C244.717 11.8907 244.504 11.0693 244.504 10.152C244.504 9.29867 244.675 8.584 245.016 8.008C245.379 7.432 245.869 6.99467 246.488 6.696C247.128 6.376 247.864 6.216 248.696 6.216C250.083 6.216 251.117 6.65333 251.8 7.528C252.483 8.40267 252.845 9.576 252.888 11.048L251.64 11.432C251.619 10.472 251.48 9.704 251.224 9.128C250.989 8.552 250.659 8.136 250.232 7.88C249.827 7.624 249.347 7.496 248.792 7.496C247.981 7.496 247.32 7.70933 246.808 8.136C246.317 8.54133 246.072 9.14933 246.072 9.96C246.072 10.6427 246.2 11.24 246.456 11.752C246.733 12.2427 247.235 12.8187 247.96 13.48L250.168 15.432C250.723 15.9013 251.256 16.4027 251.768 16.936C252.28 17.4693 252.696 18.0667 253.016 18.728C253.357 19.368 253.528 20.136 253.528 21.032C253.528 21.928 253.336 22.696 252.952 23.336C252.589 23.9547 252.067 24.4347 251.384 24.776C250.723 25.1173 249.933 25.288 249.016 25.288Z" fill="white"/>
<path d="M260.294 25.192C259.441 25.192 258.801 25.0213 258.374 24.68C257.948 24.3387 257.67 23.88 257.542 23.304C257.414 22.728 257.35 22.0773 257.35 21.352V7.624H254.918V6.504H257.35V0.584H259.046V6.504H262.182V7.624H259.046V21.128C259.046 22.1307 259.142 22.8347 259.334 23.24C259.526 23.6453 259.964 23.848 260.646 23.848C260.86 23.848 261.084 23.8373 261.318 23.816C261.574 23.7733 261.809 23.7307 262.022 23.688V25C261.766 25.064 261.478 25.1067 261.158 25.128C260.838 25.1707 260.55 25.192 260.294 25.192Z" fill="white"/>
<path d="M267.741 25.288C266.994 25.288 266.343 25.1173 265.789 24.776C265.234 24.4347 264.797 23.9653 264.477 23.368C264.178 22.7493 264.029 22.0453 264.029 21.256C264.029 20.4667 264.124 19.784 264.316 19.208C264.53 18.6107 264.903 18.056 265.437 17.544C265.97 17.032 266.727 16.4987 267.709 15.944C268.711 15.368 270.002 14.7067 271.581 13.96V12.648C271.581 11.304 271.495 10.2587 271.325 9.512C271.175 8.76533 270.909 8.24266 270.525 7.944C270.162 7.64533 269.661 7.496 269.021 7.496C268.53 7.496 268.061 7.58133 267.613 7.752C267.165 7.92267 266.791 8.264 266.493 8.776C266.215 9.26667 266.077 10.0027 266.077 10.984V11.464H264.413C264.413 9.69333 264.765 8.38133 265.469 7.528C266.194 6.65333 267.399 6.216 269.085 6.216C270.642 6.216 271.73 6.70667 272.349 7.688C272.967 8.66933 273.277 10.2587 273.277 12.456V21.768C273.277 21.9387 273.277 22.2693 273.277 22.76C273.298 23.2293 273.309 23.688 273.309 24.136C273.33 24.584 273.351 24.872 273.373 25H271.901C271.858 24.552 271.805 24.0827 271.741 23.592C271.677 23.1013 271.634 22.7493 271.613 22.536C271.335 23.304 270.855 23.9547 270.173 24.488C269.49 25.0213 268.679 25.288 267.741 25.288ZM268.157 23.88C268.69 23.88 269.17 23.7627 269.597 23.528C270.023 23.272 270.407 22.952 270.749 22.568C271.09 22.1627 271.367 21.736 271.581 21.288V15.208C270.45 15.8053 269.501 16.3173 268.733 16.744C267.986 17.1707 267.389 17.576 266.941 17.96C266.514 18.344 266.205 18.7813 266.013 19.272C265.821 19.7413 265.725 20.3173 265.725 21C265.725 22.1093 265.981 22.8667 266.493 23.272C267.005 23.6773 267.559 23.88 268.157 23.88Z" fill="white"/>
<path d="M280.763 25.192C279.91 25.192 279.27 25.0213 278.843 24.68C278.416 24.3387 278.139 23.88 278.011 23.304C277.883 22.728 277.819 22.0773 277.819 21.352V7.624H275.387V6.504H277.819V0.584H279.515V6.504H282.651V7.624H279.515V21.128C279.515 22.1307 279.611 22.8347 279.803 23.24C279.995 23.6453 280.432 23.848 281.115 23.848C281.328 23.848 281.552 23.8373 281.787 23.816C282.043 23.7733 282.278 23.7307 282.491 23.688V25C282.235 25.064 281.947 25.1067 281.627 25.128C281.307 25.1707 281.019 25.192 280.763 25.192Z" fill="white"/>
<path d="M285.361 25V6.504H287.089V25H285.361ZM285.361 4.072V1.128H287.089V4.072H285.361Z" fill="white"/>
<path d="M295.456 25.288C294.24 25.288 293.29 25.0213 292.608 24.488C291.946 23.9547 291.477 23.1653 291.2 22.12C290.944 21.0747 290.816 19.784 290.816 18.248V13.256C290.816 11.72 290.944 10.4293 291.2 9.384C291.477 8.33867 291.946 7.54933 292.608 7.016C293.29 6.48267 294.24 6.216 295.456 6.216C296.693 6.216 297.642 6.48267 298.304 7.016C298.986 7.54933 299.456 8.33867 299.712 9.384C299.989 10.408 300.128 11.6987 300.128 13.256V18.248C300.128 19.784 299.989 21.0747 299.712 22.12C299.456 23.1653 298.986 23.9547 298.304 24.488C297.642 25.0213 296.693 25.288 295.456 25.288ZM295.456 24.008C296.352 24.008 297.013 23.784 297.44 23.336C297.866 22.8667 298.133 22.2053 298.24 21.352C298.368 20.4987 298.432 19.4853 298.432 18.312V13.192C298.432 11.9973 298.368 10.984 298.24 10.152C298.133 9.29867 297.866 8.648 297.44 8.2C297.013 7.73067 296.352 7.496 295.456 7.496C294.56 7.496 293.898 7.73067 293.472 8.2C293.066 8.648 292.8 9.29867 292.672 10.152C292.565 10.984 292.512 11.9973 292.512 13.192V18.312C292.512 19.4853 292.565 20.4987 292.672 21.352C292.8 22.2053 293.066 22.8667 293.472 23.336C293.898 23.784 294.56 24.008 295.456 24.008Z" fill="white"/>
<path d="M303.418 25V6.504H305.114V8.488C305.69 7.80533 306.351 7.26133 307.098 6.856C307.844 6.42933 308.644 6.216 309.498 6.216C310.052 6.216 310.543 6.35467 310.97 6.632C311.418 6.888 311.77 7.31467 312.026 7.912C312.282 8.488 312.41 9.26667 312.41 10.248V25H310.714V10.44C310.714 9.30933 310.532 8.54133 310.17 8.136C309.828 7.73067 309.359 7.528 308.762 7.528C308.143 7.528 307.514 7.72 306.874 8.104C306.255 8.46667 305.668 8.95733 305.114 9.576V25H303.418Z" fill="white"/>
<path d="M371.016 25.288C369.565 25.288 368.413 24.8187 367.56 23.88C366.707 22.92 366.216 21.6293 366.088 20.008L367.528 19.592C367.635 21.1493 367.987 22.28 368.584 22.984C369.203 23.6667 370.035 24.008 371.08 24.008C372.019 24.008 372.744 23.752 373.256 23.24C373.768 22.7067 374.024 21.96 374.024 21C374.024 20.3387 373.8 19.656 373.352 18.952C372.925 18.2267 372.243 17.4693 371.304 16.68L369.16 14.856C368.243 14.0667 367.571 13.32 367.144 12.616C366.717 11.8907 366.504 11.0693 366.504 10.152C366.504 9.29867 366.675 8.584 367.016 8.008C367.379 7.432 367.869 6.99467 368.488 6.696C369.128 6.376 369.864 6.216 370.696 6.216C372.083 6.216 373.117 6.65333 373.8 7.528C374.483 8.40267 374.845 9.576 374.888 11.048L373.64 11.432C373.619 10.472 373.48 9.704 373.224 9.128C372.989 8.552 372.659 8.136 372.232 7.88C371.827 7.624 371.347 7.496 370.792 7.496C369.981 7.496 369.32 7.70933 368.808 8.136C368.317 8.54133 368.072 9.14933 368.072 9.96C368.072 10.6427 368.2 11.24 368.456 11.752C368.733 12.2427 369.235 12.8187 369.96 13.48L372.168 15.432C372.723 15.9013 373.256 16.4027 373.768 16.936C374.28 17.4693 374.696 18.0667 375.016 18.728C375.357 19.368 375.528 20.136 375.528 21.032C375.528 21.928 375.336 22.696 374.952 23.336C374.589 23.9547 374.067 24.4347 373.384 24.776C372.723 25.1173 371.933 25.288 371.016 25.288Z" fill="white"/>
<path d="M382.294 25.192C381.441 25.192 380.801 25.0213 380.374 24.68C379.948 24.3387 379.67 23.88 379.542 23.304C379.414 22.728 379.35 22.0773 379.35 21.352V7.624H376.918V6.504H379.35V0.584H381.046V6.504H384.182V7.624H381.046V21.128C381.046 22.1307 381.142 22.8347 381.334 23.24C381.526 23.6453 381.964 23.848 382.646 23.848C382.86 23.848 383.084 23.8373 383.318 23.816C383.574 23.7733 383.809 23.7307 384.022 23.688V25C383.766 25.064 383.478 25.1067 383.158 25.128C382.838 25.1707 382.55 25.192 382.294 25.192Z" fill="white"/>
<path d="M389.741 25.288C388.994 25.288 388.343 25.1173 387.789 24.776C387.234 24.4347 386.797 23.9653 386.477 23.368C386.178 22.7493 386.029 22.0453 386.029 21.256C386.029 20.4667 386.124 19.784 386.316 19.208C386.53 18.6107 386.903 18.056 387.437 17.544C387.97 17.032 388.727 16.4987 389.709 15.944C390.711 15.368 392.002 14.7067 393.581 13.96V12.648C393.581 11.304 393.495 10.2587 393.325 9.512C393.175 8.76533 392.909 8.24266 392.525 7.944C392.162 7.64533 391.661 7.496 391.021 7.496C390.53 7.496 390.061 7.58133 389.613 7.752C389.165 7.92267 388.791 8.264 388.493 8.776C388.215 9.26667 388.077 10.0027 388.077 10.984V11.464H386.413C386.413 9.69333 386.765 8.38133 387.469 7.528C388.194 6.65333 389.399 6.216 391.085 6.216C392.642 6.216 393.73 6.70667 394.349 7.688C394.967 8.66933 395.277 10.2587 395.277 12.456V21.768C395.277 21.9387 395.277 22.2693 395.277 22.76C395.298 23.2293 395.309 23.688 395.309 24.136C395.33 24.584 395.351 24.872 395.373 25H393.901C393.858 24.552 393.805 24.0827 393.741 23.592C393.677 23.1013 393.634 22.7493 393.613 22.536C393.335 23.304 392.855 23.9547 392.173 24.488C391.49 25.0213 390.679 25.288 389.741 25.288ZM390.157 23.88C390.69 23.88 391.17 23.7627 391.597 23.528C392.023 23.272 392.407 22.952 392.749 22.568C393.09 22.1627 393.367 21.736 393.581 21.288V15.208C392.45 15.8053 391.501 16.3173 390.733 16.744C389.986 17.1707 389.389 17.576 388.941 17.96C388.514 18.344 388.205 18.7813 388.013 19.272C387.821 19.7413 387.725 20.3173 387.725 21C387.725 22.1093 387.981 22.8667 388.493 23.272C389.005 23.6773 389.559 23.88 390.157 23.88Z" fill="white"/>
<path d="M402.763 25.192C401.91 25.192 401.27 25.0213 400.843 24.68C400.416 24.3387 400.139 23.88 400.011 23.304C399.883 22.728 399.819 22.0773 399.819 21.352V7.624H397.387V6.504H399.819V0.584H401.515V6.504H404.651V7.624H401.515V21.128C401.515 22.1307 401.611 22.8347 401.803 23.24C401.995 23.6453 402.432 23.848 403.115 23.848C403.328 23.848 403.552 23.8373 403.787 23.816C404.043 23.7733 404.278 23.7307 404.491 23.688V25C404.235 25.064 403.947 25.1067 403.627 25.128C403.307 25.1707 403.019 25.192 402.763 25.192Z" fill="white"/>
<path d="M407.361 25V6.504H409.089V25H407.361ZM407.361 4.072V1.128H409.089V4.072H407.361Z" fill="white"/>
<path d="M417.456 25.288C416.24 25.288 415.29 25.0213 414.608 24.488C413.946 23.9547 413.477 23.1653 413.2 22.12C412.944 21.0747 412.816 19.784 412.816 18.248V13.256C412.816 11.72 412.944 10.4293 413.2 9.384C413.477 8.33867 413.946 7.54933 414.608 7.016C415.29 6.48267 416.24 6.216 417.456 6.216C418.693 6.216 419.642 6.48267 420.304 7.016C420.986 7.54933 421.456 8.33867 421.712 9.384C421.989 10.408 422.128 11.6987 422.128 13.256V18.248C422.128 19.784 421.989 21.0747 421.712 22.12C421.456 23.1653 420.986 23.9547 420.304 24.488C419.642 25.0213 418.693 25.288 417.456 25.288ZM417.456 24.008C418.352 24.008 419.013 23.784 419.44 23.336C419.866 22.8667 420.133 22.2053 420.24 21.352C420.368 20.4987 420.432 19.4853 420.432 18.312V13.192C420.432 11.9973 420.368 10.984 420.24 10.152C420.133 9.29867 419.866 8.648 419.44 8.2C419.013 7.73067 418.352 7.496 417.456 7.496C416.56 7.496 415.898 7.73067 415.472 8.2C415.066 8.648 414.8 9.29867 414.672 10.152C414.565 10.984 414.512 11.9973 414.512 13.192V18.312C414.512 19.4853 414.565 20.4987 414.672 21.352C414.8 22.2053 415.066 22.8667 415.472 23.336C415.898 23.784 416.56 24.008 417.456 24.008Z" fill="white"/>
<path d="M425.418 25V6.504H427.114V8.488C427.69 7.80533 428.351 7.26133 429.098 6.856C429.844 6.42933 430.644 6.216 431.498 6.216C432.052 6.216 432.543 6.35467 432.97 6.632C433.418 6.888 433.77 7.31467 434.026 7.912C434.282 8.488 434.41 9.26667 434.41 10.248V25H432.714V10.44C432.714 9.30933 432.532 8.54133 432.17 8.136C431.828 7.73067 431.359 7.528 430.762 7.528C430.143 7.528 429.514 7.72 428.874 8.104C428.255 8.46667 427.668 8.95733 427.114 9.576V25H425.418Z" fill="white"/>
<path d="M493.016 25.288C491.565 25.288 490.413 24.8187 489.56 23.88C488.707 22.92 488.216 21.6293 488.088 20.008L489.528 19.592C489.635 21.1493 489.987 22.28 490.584 22.984C491.203 23.6667 492.035 24.008 493.08 24.008C494.019 24.008 494.744 23.752 495.256 23.24C495.768 22.7067 496.024 21.96 496.024 21C496.024 20.3387 495.8 19.656 495.352 18.952C494.925 18.2267 494.243 17.4693 493.304 16.68L491.16 14.856C490.243 14.0667 489.571 13.32 489.144 12.616C488.717 11.8907 488.504 11.0693 488.504 10.152C488.504 9.29867 488.675 8.584 489.016 8.008C489.379 7.432 489.869 6.99467 490.488 6.696C491.128 6.376 491.864 6.216 492.696 6.216C494.083 6.216 495.117 6.65333 495.8 7.528C496.483 8.40267 496.845 9.576 496.888 11.048L495.64 11.432C495.619 10.472 495.48 9.704 495.224 9.128C494.989 8.552 494.659 8.136 494.232 7.88C493.827 7.624 493.347 7.496 492.792 7.496C491.981 7.496 491.32 7.70933 490.808 8.136C490.317 8.54133 490.072 9.14933 490.072 9.96C490.072 10.6427 490.2 11.24 490.456 11.752C490.733 12.2427 491.235 12.8187 491.96 13.48L494.168 15.432C494.723 15.9013 495.256 16.4027 495.768 16.936C496.28 17.4693 496.696 18.0667 497.016 18.728C497.357 19.368 497.528 20.136 497.528 21.032C497.528 21.928 497.336 22.696 496.952 23.336C496.589 23.9547 496.067 24.4347 495.384 24.776C494.723 25.1173 493.933 25.288 493.016 25.288Z" fill="white"/>
<path d="M504.294 25.192C503.441 25.192 502.801 25.0213 502.374 24.68C501.948 24.3387 501.67 23.88 501.542 23.304C501.414 22.728 501.35 22.0773 501.35 21.352V7.624H498.918V6.504H501.35V0.584H503.046V6.504H506.182V7.624H503.046V21.128C503.046 22.1307 503.142 22.8347 503.334 23.24C503.526 23.6453 503.964 23.848 504.646 23.848C504.86 23.848 505.084 23.8373 505.318 23.816C505.574 23.7733 505.809 23.7307 506.022 23.688V25C505.766 25.064 505.478 25.1067 505.158 25.128C504.838 25.1707 504.55 25.192 504.294 25.192Z" fill="white"/>
<path d="M511.741 25.288C510.994 25.288 510.343 25.1173 509.789 24.776C509.234 24.4347 508.797 23.9653 508.477 23.368C508.178 22.7493 508.029 22.0453 508.029 21.256C508.029 20.4667 508.124 19.784 508.316 19.208C508.53 18.6107 508.903 18.056 509.437 17.544C509.97 17.032 510.727 16.4987 511.709 15.944C512.711 15.368 514.002 14.7067 515.581 13.96V12.648C515.581 11.304 515.495 10.2587 515.325 9.512C515.175 8.76533 514.909 8.24266 514.525 7.944C514.162 7.64533 513.661 7.496 513.021 7.496C512.53 7.496 512.061 7.58133 511.613 7.752C511.165 7.92267 510.791 8.264 510.493 8.776C510.215 9.26667 510.077 10.0027 510.077 10.984V11.464H508.413C508.413 9.69333 508.765 8.38133 509.469 7.528C510.194 6.65333 511.399 6.216 513.085 6.216C514.642 6.216 515.73 6.70667 516.349 7.688C516.967 8.66933 517.276 10.2587 517.276 12.456V21.768C517.276 21.9387 517.276 22.2693 517.276 22.76C517.298 23.2293 517.309 23.688 517.309 24.136C517.33 24.584 517.351 24.872 517.372 25H515.901C515.858 24.552 515.805 24.0827 515.741 23.592C515.677 23.1013 515.634 22.7493 515.612 22.536C515.335 23.304 514.855 23.9547 514.172 24.488C513.49 25.0213 512.679 25.288 511.741 25.288ZM512.156 23.88C512.69 23.88 513.17 23.7627 513.596 23.528C514.023 23.272 514.407 22.952 514.749 22.568C515.09 22.1627 515.367 21.736 515.581 21.288V15.208C514.45 15.8053 513.5 16.3173 512.732 16.744C511.986 17.1707 511.389 17.576 510.941 17.96C510.514 18.344 510.205 18.7813 510.013 19.272C509.821 19.7413 509.725 20.3173 509.725 21C509.725 22.1093 509.981 22.8667 510.493 23.272C511.005 23.6773 511.559 23.88 512.156 23.88Z" fill="white"/>
<path d="M524.763 25.192C523.91 25.192 523.27 25.0213 522.843 24.68C522.416 24.3387 522.139 23.88 522.011 23.304C521.883 22.728 521.819 22.0773 521.819 21.352V7.624H519.387V6.504H521.819V0.584H523.515V6.504H526.651V7.624H523.515V21.128C523.515 22.1307 523.611 22.8347 523.803 23.24C523.995 23.6453 524.432 23.848 525.115 23.848C525.328 23.848 525.552 23.8373 525.787 23.816C526.043 23.7733 526.278 23.7307 526.491 23.688V25C526.235 25.064 525.947 25.1067 525.627 25.128C525.307 25.1707 525.019 25.192 524.763 25.192Z" fill="white"/>
<path d="M529.361 25V6.504H531.089V25H529.361ZM529.361 4.072V1.128H531.089V4.072H529.361Z" fill="white"/>
<path d="M539.456 25.288C538.24 25.288 537.29 25.0213 536.608 24.488C535.946 23.9547 535.477 23.1653 535.2 22.12C534.944 21.0747 534.816 19.784 534.816 18.248V13.256C534.816 11.72 534.944 10.4293 535.2 9.384C535.477 8.33867 535.946 7.54933 536.608 7.016C537.29 6.48267 538.24 6.216 539.456 6.216C540.693 6.216 541.642 6.48267 542.304 7.016C542.986 7.54933 543.456 8.33867 543.712 9.384C543.989 10.408 544.128 11.6987 544.128 13.256V18.248C544.128 19.784 543.989 21.0747 543.712 22.12C543.456 23.1653 542.986 23.9547 542.304 24.488C541.642 25.0213 540.693 25.288 539.456 25.288ZM539.456 24.008C540.352 24.008 541.013 23.784 541.44 23.336C541.866 22.8667 542.133 22.2053 542.24 21.352C542.368 20.4987 542.432 19.4853 542.432 18.312V13.192C542.432 11.9973 542.368 10.984 542.24 10.152C542.133 9.29867 541.866 8.648 541.44 8.2C541.013 7.73067 540.352 7.496 539.456 7.496C538.56 7.496 537.898 7.73067 537.472 8.2C537.066 8.648 536.8 9.29867 536.672 10.152C536.565 10.984 536.512 11.9973 536.512 13.192V18.312C536.512 19.4853 536.565 20.4987 536.672 21.352C536.8 22.2053 537.066 22.8667 537.472 23.336C537.898 23.784 538.56 24.008 539.456 24.008Z" fill="white"/>
<path d="M547.418 25V6.504H549.114V8.488C549.69 7.80533 550.351 7.26133 551.098 6.856C551.844 6.42933 552.644 6.216 553.498 6.216C554.052 6.216 554.543 6.35467 554.97 6.632C555.418 6.888 555.77 7.31467 556.026 7.912C556.282 8.488 556.41 9.26667 556.41 10.248V25H554.714V10.44C554.714 9.30933 554.532 8.54133 554.17 8.136C553.828 7.73067 553.359 7.528 552.762 7.528C552.143 7.528 551.514 7.72 550.874 8.104C550.255 8.46667 549.668 8.95733 549.114 9.576V25H547.418Z" fill="white"/>
<path d="M615.016 25.288C613.565 25.288 612.413 24.8187 611.56 23.88C610.707 22.92 610.216 21.6293 610.088 20.008L611.528 19.592C611.635 21.1493 611.987 22.28 612.584 22.984C613.203 23.6667 614.035 24.008 615.08 24.008C616.019 24.008 616.744 23.752 617.256 23.24C617.768 22.7067 618.024 21.96 618.024 21C618.024 20.3387 617.8 19.656 617.352 18.952C616.925 18.2267 616.243 17.4693 615.304 16.68L613.16 14.856C612.243 14.0667 611.571 13.32 611.144 12.616C610.717 11.8907 610.504 11.0693 610.504 10.152C610.504 9.29867 610.675 8.584 611.016 8.008C611.379 7.432 611.869 6.99467 612.488 6.696C613.128 6.376 613.864 6.216 614.696 6.216C616.083 6.216 617.117 6.65333 617.8 7.528C618.483 8.40267 618.845 9.576 618.888 11.048L617.64 11.432C617.619 10.472 617.48 9.704 617.224 9.128C616.989 8.552 616.659 8.136 616.232 7.88C615.827 7.624 615.347 7.496 614.792 7.496C613.981 7.496 613.32 7.70933 612.808 8.136C612.317 8.54133 612.072 9.14933 612.072 9.96C612.072 10.6427 612.2 11.24 612.456 11.752C612.733 12.2427 613.235 12.8187 613.96 13.48L616.168 15.432C616.723 15.9013 617.256 16.4027 617.768 16.936C618.28 17.4693 618.696 18.0667 619.016 18.728C619.357 19.368 619.528 20.136 619.528 21.032C619.528 21.928 619.336 22.696 618.952 23.336C618.589 23.9547 618.067 24.4347 617.384 24.776C616.723 25.1173 615.933 25.288 615.016 25.288Z" fill="white"/>
<path d="M626.294 25.192C625.441 25.192 624.801 25.0213 624.374 24.68C623.948 24.3387 623.67 23.88 623.542 23.304C623.414 22.728 623.35 22.0773 623.35 21.352V7.624H620.918V6.504H623.35V0.584H625.046V6.504H628.182V7.624H625.046V21.128C625.046 22.1307 625.142 22.8347 625.334 23.24C625.526 23.6453 625.964 23.848 626.646 23.848C626.86 23.848 627.084 23.8373 627.318 23.816C627.574 23.7733 627.809 23.7307 628.022 23.688V25C627.766 25.064 627.478 25.1067 627.158 25.128C626.838 25.1707 626.55 25.192 626.294 25.192Z" fill="white"/>
<path d="M633.741 25.288C632.994 25.288 632.343 25.1173 631.789 24.776C631.234 24.4347 630.797 23.9653 630.477 23.368C630.178 22.7493 630.029 22.0453 630.029 21.256C630.029 20.4667 630.125 19.784 630.317 19.208C630.53 18.6107 630.903 18.056 631.437 17.544C631.97 17.032 632.727 16.4987 633.708 15.944C634.711 15.368 636.002 14.7067 637.581 13.96V12.648C637.581 11.304 637.495 10.2587 637.325 9.512C637.175 8.76533 636.909 8.24266 636.525 7.944C636.162 7.64533 635.661 7.496 635.021 7.496C634.53 7.496 634.06 7.58133 633.612 7.752C633.164 7.92267 632.791 8.264 632.492 8.776C632.215 9.26667 632.077 10.0027 632.077 10.984V11.464H630.413C630.413 9.69333 630.765 8.38133 631.469 7.528C632.194 6.65333 633.399 6.216 635.085 6.216C636.642 6.216 637.73 6.70667 638.349 7.688C638.967 8.66933 639.276 10.2587 639.276 12.456V21.768C639.276 21.9387 639.276 22.2693 639.276 22.76C639.298 23.2293 639.309 23.688 639.309 24.136C639.33 24.584 639.351 24.872 639.372 25H637.901C637.858 24.552 637.805 24.0827 637.741 23.592C637.677 23.1013 637.634 22.7493 637.612 22.536C637.335 23.304 636.855 23.9547 636.172 24.488C635.49 25.0213 634.679 25.288 633.741 25.288ZM634.156 23.88C634.69 23.88 635.17 23.7627 635.596 23.528C636.023 23.272 636.407 22.952 636.749 22.568C637.09 22.1627 637.367 21.736 637.581 21.288V15.208C636.45 15.8053 635.5 16.3173 634.732 16.744C633.986 17.1707 633.388 17.576 632.94 17.96C632.514 18.344 632.205 18.7813 632.013 19.272C631.821 19.7413 631.724 20.3173 631.724 21C631.724 22.1093 631.98 22.8667 632.492 23.272C633.004 23.6773 633.559 23.88 634.156 23.88Z" fill="white"/>
<path d="M646.763 25.192C645.91 25.192 645.27 25.0213 644.843 24.68C644.416 24.3387 644.139 23.88 644.011 23.304C643.883 22.728 643.819 22.0773 643.819 21.352V7.624H641.387V6.504H643.819V0.584H645.515V6.504H648.651V7.624H645.515V21.128C645.515 22.1307 645.611 22.8347 645.803 23.24C645.995 23.6453 646.432 23.848 647.115 23.848C647.328 23.848 647.552 23.8373 647.787 23.816C648.043 23.7733 648.278 23.7307 648.491 23.688V25C648.235 25.064 647.947 25.1067 647.627 25.128C647.307 25.1707 647.019 25.192 646.763 25.192Z" fill="white"/>
<path d="M651.361 25V6.504H653.089V25H651.361ZM651.361 4.072V1.128H653.089V4.072H651.361Z" fill="white"/>
<path d="M661.456 25.288C660.24 25.288 659.29 25.0213 658.608 24.488C657.946 23.9547 657.477 23.1653 657.2 22.12C656.944 21.0747 656.816 19.784 656.816 18.248V13.256C656.816 11.72 656.944 10.4293 657.2 9.384C657.477 8.33867 657.946 7.54933 658.608 7.016C659.29 6.48267 660.24 6.216 661.456 6.216C662.693 6.216 663.642 6.48267 664.304 7.016C664.986 7.54933 665.456 8.33867 665.712 9.384C665.989 10.408 666.128 11.6987 666.128 13.256V18.248C666.128 19.784 665.989 21.0747 665.712 22.12C665.456 23.1653 664.986 23.9547 664.304 24.488C663.642 25.0213 662.693 25.288 661.456 25.288ZM661.456 24.008C662.352 24.008 663.013 23.784 663.44 23.336C663.866 22.8667 664.133 22.2053 664.24 21.352C664.368 20.4987 664.432 19.4853 664.432 18.312V13.192C664.432 11.9973 664.368 10.984 664.24 10.152C664.133 9.29867 663.866 8.648 663.44 8.2C663.013 7.73067 662.352 7.496 661.456 7.496C660.56 7.496 659.898 7.73067 659.472 8.2C659.066 8.648 658.8 9.29867 658.672 10.152C658.565 10.984 658.512 11.9973 658.512 13.192V18.312C658.512 19.4853 658.565 20.4987 658.672 21.352C658.8 22.2053 659.066 22.8667 659.472 23.336C659.898 23.784 660.56 24.008 661.456 24.008Z" fill="white"/>
<path d="M669.418 25V6.504H671.114V8.488C671.69 7.80533 672.351 7.26133 673.098 6.856C673.844 6.42933 674.644 6.216 675.498 6.216C676.052 6.216 676.543 6.35467 676.97 6.632C677.418 6.888 677.77 7.31467 678.026 7.912C678.282 8.488 678.41 9.26667 678.41 10.248V25H676.714V10.44C676.714 9.30933 676.532 8.54133 676.17 8.136C675.828 7.73067 675.359 7.528 674.762 7.528C674.143 7.528 673.514 7.72 672.874 8.104C672.255 8.46667 671.668 8.95733 671.114 9.576V25H669.418Z" fill="white"/>
<path d="M737.016 25.288C735.565 25.288 734.413 24.8187 733.56 23.88C732.707 22.92 732.216 21.6293 732.088 20.008L733.528 19.592C733.635 21.1493 733.987 22.28 734.584 22.984C735.203 23.6667 736.035 24.008 737.08 24.008C738.019 24.008 738.744 23.752 739.256 23.24C739.768 22.7067 740.024 21.96 740.024 21C740.024 20.3387 739.8 19.656 739.352 18.952C738.925 18.2267 738.243 17.4693 737.304 16.68L735.16 14.856C734.243 14.0667 733.571 13.32 733.144 12.616C732.717 11.8907 732.504 11.0693 732.504 10.152C732.504 9.29867 732.675 8.584 733.016 8.008C733.379 7.432 733.869 6.99467 734.488 6.696C735.128 6.376 735.864 6.216 736.696 6.216C738.083 6.216 739.117 6.65333 739.8 7.528C740.483 8.40267 740.845 9.576 740.888 11.048L739.64 11.432C739.619 10.472 739.48 9.704 739.224 9.128C738.989 8.552 738.659 8.136 738.232 7.88C737.827 7.624 737.347 7.496 736.792 7.496C735.981 7.496 735.32 7.70933 734.808 8.136C734.317 8.54133 734.072 9.14933 734.072 9.96C734.072 10.6427 734.2 11.24 734.456 11.752C734.733 12.2427 735.235 12.8187 735.96 13.48L738.168 15.432C738.723 15.9013 739.256 16.4027 739.768 16.936C740.28 17.4693 740.696 18.0667 741.016 18.728C741.357 19.368 741.528 20.136 741.528 21.032C741.528 21.928 741.336 22.696 740.952 23.336C740.589 23.9547 740.067 24.4347 739.384 24.776C738.723 25.1173 737.933 25.288 737.016 25.288Z" fill="white"/>
<path d="M748.294 25.192C747.441 25.192 746.801 25.0213 746.374 24.68C745.948 24.3387 745.67 23.88 745.542 23.304C745.414 22.728 745.35 22.0773 745.35 21.352V7.624H742.918V6.504H745.35V0.584H747.046V6.504H750.182V7.624H747.046V21.128C747.046 22.1307 747.142 22.8347 747.334 23.24C747.526 23.6453 747.964 23.848 748.646 23.848C748.86 23.848 749.084 23.8373 749.318 23.816C749.574 23.7733 749.809 23.7307 750.022 23.688V25C749.766 25.064 749.478 25.1067 749.158 25.128C748.838 25.1707 748.55 25.192 748.294 25.192Z" fill="white"/>
<path d="M755.741 25.288C754.994 25.288 754.343 25.1173 753.789 24.776C753.234 24.4347 752.797 23.9653 752.477 23.368C752.178 22.7493 752.029 22.0453 752.029 21.256C752.029 20.4667 752.125 19.784 752.317 19.208C752.53 18.6107 752.903 18.056 753.437 17.544C753.97 17.032 754.727 16.4987 755.708 15.944C756.711 15.368 758.002 14.7067 759.581 13.96V12.648C759.581 11.304 759.495 10.2587 759.325 9.512C759.175 8.76533 758.909 8.24266 758.525 7.944C758.162 7.64533 757.661 7.496 757.021 7.496C756.53 7.496 756.06 7.58133 755.612 7.752C755.164 7.92267 754.791 8.264 754.492 8.776C754.215 9.26667 754.077 10.0027 754.077 10.984V11.464H752.413C752.413 9.69333 752.765 8.38133 753.469 7.528C754.194 6.65333 755.399 6.216 757.085 6.216C758.642 6.216 759.73 6.70667 760.349 7.688C760.967 8.66933 761.276 10.2587 761.276 12.456V21.768C761.276 21.9387 761.276 22.2693 761.276 22.76C761.298 23.2293 761.309 23.688 761.309 24.136C761.33 24.584 761.351 24.872 761.372 25H759.901C759.858 24.552 759.805 24.0827 759.741 23.592C759.677 23.1013 759.634 22.7493 759.612 22.536C759.335 23.304 758.855 23.9547 758.172 24.488C757.49 25.0213 756.679 25.288 755.741 25.288ZM756.156 23.88C756.69 23.88 757.17 23.7627 757.596 23.528C758.023 23.272 758.407 22.952 758.749 22.568C759.09 22.1627 759.367 21.736 759.581 21.288V15.208C758.45 15.8053 757.5 16.3173 756.732 16.744C755.986 17.1707 755.388 17.576 754.94 17.96C754.514 18.344 754.205 18.7813 754.013 19.272C753.821 19.7413 753.724 20.3173 753.724 21C753.724 22.1093 753.98 22.8667 754.492 23.272C755.004 23.6773 755.559 23.88 756.156 23.88Z" fill="white"/>
<path d="M768.763 25.192C767.91 25.192 767.27 25.0213 766.843 24.68C766.416 24.3387 766.139 23.88 766.011 23.304C765.883 22.728 765.819 22.0773 765.819 21.352V7.624H763.387V6.504H765.819V0.584H767.515V6.504H770.651V7.624H767.515V21.128C767.515 22.1307 767.611 22.8347 767.803 23.24C767.995 23.6453 768.432 23.848 769.115 23.848C769.328 23.848 769.552 23.8373 769.787 23.816C770.043 23.7733 770.278 23.7307 770.491 23.688V25C770.235 25.064 769.947 25.1067 769.627 25.128C769.307 25.1707 769.019 25.192 768.763 25.192Z" fill="white"/>
<path d="M773.361 25V6.504H775.089V25H773.361ZM773.361 4.072V1.128H775.089V4.072H773.361Z" fill="white"/>
<path d="M783.456 25.288C782.24 25.288 781.29 25.0213 780.608 24.488C779.946 23.9547 779.477 23.1653 779.2 22.12C778.944 21.0747 778.816 19.784 778.816 18.248V13.256C778.816 11.72 778.944 10.4293 779.2 9.384C779.477 8.33867 779.946 7.54933 780.608 7.016C781.29 6.48267 782.24 6.216 783.456 6.216C784.693 6.216 785.642 6.48267 786.304 7.016C786.986 7.54933 787.456 8.33867 787.712 9.384C787.989 10.408 788.128 11.6987 788.128 13.256V18.248C788.128 19.784 787.989 21.0747 787.712 22.12C787.456 23.1653 786.986 23.9547 786.304 24.488C785.642 25.0213 784.693 25.288 783.456 25.288ZM783.456 24.008C784.352 24.008 785.013 23.784 785.44 23.336C785.866 22.8667 786.133 22.2053 786.24 21.352C786.368 20.4987 786.432 19.4853 786.432 18.312V13.192C786.432 11.9973 786.368 10.984 786.24 10.152C786.133 9.29867 785.866 8.648 785.44 8.2C785.013 7.73067 784.352 7.496 783.456 7.496C782.56 7.496 781.898 7.73067 781.472 8.2C781.066 8.648 780.8 9.29867 780.672 10.152C780.565 10.984 780.512 11.9973 780.512 13.192V18.312C780.512 19.4853 780.565 20.4987 780.672 21.352C780.8 22.2053 781.066 22.8667 781.472 23.336C781.898 23.784 782.56 24.008 783.456 24.008Z" fill="white"/>
<path d="M791.418 25V6.504H793.114V8.488C793.69 7.80533 794.351 7.26133 795.098 6.856C795.844 6.42933 796.644 6.216 797.498 6.216C798.052 6.216 798.543 6.35467 798.97 6.632C799.418 6.888 799.77 7.31467 800.026 7.912C800.282 8.488 800.41 9.26667 800.41 10.248V25H798.714V10.44C798.714 9.30933 798.532 8.54133 798.17 8.136C797.828 7.73067 797.359 7.528 796.762 7.528C796.143 7.528 795.514 7.72 794.874 8.104C794.255 8.46667 793.668 8.95733 793.114 9.576V25H791.418Z" fill="white"/>
<path d="M859.016 25.288C857.565 25.288 856.413 24.8187 855.56 23.88C854.707 22.92 854.216 21.6293 854.088 20.008L855.528 19.592C855.635 21.1493 855.987 22.28 856.584 22.984C857.203 23.6667 858.035 24.008 859.08 24.008C860.019 24.008 860.744 23.752 861.256 23.24C861.768 22.7067 862.024 21.96 862.024 21C862.024 20.3387 861.8 19.656 861.352 18.952C860.925 18.2267 860.243 17.4693 859.304 16.68L857.16 14.856C856.243 14.0667 855.571 13.32 855.144 12.616C854.717 11.8907 854.504 11.0693 854.504 10.152C854.504 9.29867 854.675 8.584 855.016 8.008C855.379 7.432 855.869 6.99467 856.488 6.696C857.128 6.376 857.864 6.216 858.696 6.216C860.083 6.216 861.117 6.65333 861.8 7.528C862.483 8.40267 862.845 9.576 862.888 11.048L861.64 11.432C861.619 10.472 861.48 9.704 861.224 9.128C860.989 8.552 860.659 8.136 860.232 7.88C859.827 7.624 859.347 7.496 858.792 7.496C857.981 7.496 857.32 7.70933 856.808 8.136C856.317 8.54133 856.072 9.14933 856.072 9.96C856.072 10.6427 856.2 11.24 856.456 11.752C856.733 12.2427 857.235 12.8187 857.96 13.48L860.168 15.432C860.723 15.9013 861.256 16.4027 861.768 16.936C862.28 17.4693 862.696 18.0667 863.016 18.728C863.357 19.368 863.528 20.136 863.528 21.032C863.528 21.928 863.336 22.696 862.952 23.336C862.589 23.9547 862.067 24.4347 861.384 24.776C860.723 25.1173 859.933 25.288 859.016 25.288Z" fill="white"/>
<path d="M870.294 25.192C869.441 25.192 868.801 25.0213 868.374 24.68C867.948 24.3387 867.67 23.88 867.542 23.304C867.414 22.728 867.35 22.0773 867.35 21.352V7.624H864.918V6.504H867.35V0.584H869.046V6.504H872.182V7.624H869.046V21.128C869.046 22.1307 869.142 22.8347 869.334 23.24C869.526 23.6453 869.964 23.848 870.646 23.848C870.86 23.848 871.084 23.8373 871.318 23.816C871.574 23.7733 871.809 23.7307 872.022 23.688V25C871.766 25.064 871.478 25.1067 871.158 25.128C870.838 25.1707 870.55 25.192 870.294 25.192Z" fill="white"/>
<path d="M877.741 25.288C876.994 25.288 876.343 25.1173 875.789 24.776C875.234 24.4347 874.797 23.9653 874.477 23.368C874.178 22.7493 874.029 22.0453 874.029 21.256C874.029 20.4667 874.125 19.784 874.317 19.208C874.53 18.6107 874.903 18.056 875.437 17.544C875.97 17.032 876.727 16.4987 877.708 15.944C878.711 15.368 880.002 14.7067 881.581 13.96V12.648C881.581 11.304 881.495 10.2587 881.325 9.512C881.175 8.76533 880.909 8.24266 880.525 7.944C880.162 7.64533 879.661 7.496 879.021 7.496C878.53 7.496 878.06 7.58133 877.612 7.752C877.164 7.92267 876.791 8.264 876.492 8.776C876.215 9.26667 876.077 10.0027 876.077 10.984V11.464H874.413C874.413 9.69333 874.765 8.38133 875.469 7.528C876.194 6.65333 877.399 6.216 879.085 6.216C880.642 6.216 881.73 6.70667 882.349 7.688C882.967 8.66933 883.276 10.2587 883.276 12.456V21.768C883.276 21.9387 883.276 22.2693 883.276 22.76C883.298 23.2293 883.309 23.688 883.309 24.136C883.33 24.584 883.351 24.872 883.372 25H881.901C881.858 24.552 881.805 24.0827 881.741 23.592C881.677 23.1013 881.634 22.7493 881.612 22.536C881.335 23.304 880.855 23.9547 880.172 24.488C879.49 25.0213 878.679 25.288 877.741 25.288ZM878.156 23.88C878.69 23.88 879.17 23.7627 879.596 23.528C880.023 23.272 880.407 22.952 880.749 22.568C881.09 22.1627 881.367 21.736 881.581 21.288V15.208C880.45 15.8053 879.5 16.3173 878.732 16.744C877.986 17.1707 877.388 17.576 876.94 17.96C876.514 18.344 876.205 18.7813 876.013 19.272C875.821 19.7413 875.724 20.3173 875.724 21C875.724 22.1093 875.98 22.8667 876.492 23.272C877.004 23.6773 877.559 23.88 878.156 23.88Z" fill="white"/>
<path d="M890.763 25.192C889.91 25.192 889.27 25.0213 888.843 24.68C888.416 24.3387 888.139 23.88 888.011 23.304C887.883 22.728 887.819 22.0773 887.819 21.352V7.624H885.387V6.504H887.819V0.584H889.515V6.504H892.651V7.624H889.515V21.128C889.515 22.1307 889.611 22.8347 889.803 23.24C889.995 23.6453 890.432 23.848 891.115 23.848C891.328 23.848 891.552 23.8373 891.787 23.816C892.043 23.7733 892.278 23.7307 892.491 23.688V25C892.235 25.064 891.947 25.1067 891.627 25.128C891.307 25.1707 891.019 25.192 890.763 25.192Z" fill="white"/>
<path d="M895.361 25V6.504H897.089V25H895.361ZM895.361 4.072V1.128H897.089V4.072H895.361Z" fill="white"/>
<path d="M905.456 25.288C904.24 25.288 903.29 25.0213 902.608 24.488C901.946 23.9547 901.477 23.1653 901.2 22.12C900.944 21.0747 900.816 19.784 900.816 18.248V13.256C900.816 11.72 900.944 10.4293 901.2 9.384C901.477 8.33867 901.946 7.54933 902.608 7.016C903.29 6.48267 904.24 6.216 905.456 6.216C906.693 6.216 907.642 6.48267 908.304 7.016C908.986 7.54933 909.456 8.33867 909.712 9.384C909.989 10.408 910.128 11.6987 910.128 13.256V18.248C910.128 19.784 909.989 21.0747 909.712 22.12C909.456 23.1653 908.986 23.9547 908.304 24.488C907.642 25.0213 906.693 25.288 905.456 25.288ZM905.456 24.008C906.352 24.008 907.013 23.784 907.44 23.336C907.866 22.8667 908.133 22.2053 908.24 21.352C908.368 20.4987 908.432 19.4853 908.432 18.312V13.192C908.432 11.9973 908.368 10.984 908.24 10.152C908.133 9.29867 907.866 8.648 907.44 8.2C907.013 7.73067 906.352 7.496 905.456 7.496C904.56 7.496 903.898 7.73067 903.472 8.2C903.066 8.648 902.8 9.29867 902.672 10.152C902.565 10.984 902.512 11.9973 902.512 13.192V18.312C902.512 19.4853 902.565 20.4987 902.672 21.352C902.8 22.2053 903.066 22.8667 903.472 23.336C903.898 23.784 904.56 24.008 905.456 24.008Z" fill="white"/>
<path d="M913.418 25V6.504H915.114V8.488C915.69 7.80533 916.351 7.26133 917.098 6.856C917.844 6.42933 918.644 6.216 919.498 6.216C920.052 6.216 920.543 6.35467 920.97 6.632C921.418 6.888 921.77 7.31467 922.026 7.912C922.282 8.488 922.41 9.26667 922.41 10.248V25H920.714V10.44C920.714 9.30933 920.532 8.54133 920.17 8.136C919.828 7.73067 919.359 7.528 918.762 7.528C918.143 7.528 917.514 7.72 916.874 8.104C916.255 8.46667 915.668 8.95733 915.114 9.576V25H913.418Z" fill="white"/>
<path d="M981.016 25.288C979.565 25.288 978.413 24.8187 977.56 23.88C976.707 22.92 976.216 21.6293 976.088 20.008L977.528 19.592C977.635 21.1493 977.987 22.28 978.584 22.984C979.203 23.6667 980.035 24.008 981.08 24.008C982.019 24.008 982.744 23.752 983.256 23.24C983.768 22.7067 984.024 21.96 984.024 21C984.024 20.3387 983.8 19.656 983.352 18.952C982.925 18.2267 982.243 17.4693 981.304 16.68L979.16 14.856C978.243 14.0667 977.571 13.32 977.144 12.616C976.717 11.8907 976.504 11.0693 976.504 10.152C976.504 9.29867 976.675 8.584 977.016 8.008C977.379 7.432 977.869 6.99467 978.488 6.696C979.128 6.376 979.864 6.216 980.696 6.216C982.083 6.216 983.117 6.65333 983.8 7.528C984.483 8.40267 984.845 9.576 984.888 11.048L983.64 11.432C983.619 10.472 983.48 9.704 983.224 9.128C982.989 8.552 982.659 8.136 982.232 7.88C981.827 7.624 981.347 7.496 980.792 7.496C979.981 7.496 979.32 7.70933 978.808 8.136C978.317 8.54133 978.072 9.14933 978.072 9.96C978.072 10.6427 978.2 11.24 978.456 11.752C978.733 12.2427 979.235 12.8187 979.96 13.48L982.168 15.432C982.723 15.9013 983.256 16.4027 983.768 16.936C984.28 17.4693 984.696 18.0667 985.016 18.728C985.357 19.368 985.528 20.136 985.528 21.032C985.528 21.928 985.336 22.696 984.952 23.336C984.589 23.9547 984.067 24.4347 983.384 24.776C982.723 25.1173 981.933 25.288 981.016 25.288Z" fill="white"/>
<path d="M992.294 25.192C991.441 25.192 990.801 25.0213 990.374 24.68C989.948 24.3387 989.67 23.88 989.542 23.304C989.414 22.728 989.35 22.0773 989.35 21.352V7.624H986.918V6.504H989.35V0.584H991.046V6.504H994.182V7.624H991.046V21.128C991.046 22.1307 991.142 22.8347 991.334 23.24C991.526 23.6453 991.964 23.848 992.646 23.848C992.86 23.848 993.084 23.8373 993.318 23.816C993.574 23.7733 993.809 23.7307 994.022 23.688V25C993.766 25.064 993.478 25.1067 993.158 25.128C992.838 25.1707 992.55 25.192 992.294 25.192Z" fill="white"/>
<path d="M999.741 25.288C998.994 25.288 998.343 25.1173 997.789 24.776C997.234 24.4347 996.797 23.9653 996.477 23.368C996.178 22.7493 996.029 22.0453 996.029 21.256C996.029 20.4667 996.125 19.784 996.317 19.208C996.53 18.6107 996.903 18.056 997.437 17.544C997.97 17.032 998.727 16.4987 999.708 15.944C1000.71 15.368 1002 14.7067 1003.58 13.96V12.648C1003.58 11.304 1003.5 10.2587 1003.32 9.512C1003.18 8.76533 1002.91 8.24266 1002.52 7.944C1002.16 7.64533 1001.66 7.496 1001.02 7.496C1000.53 7.496 1000.06 7.58133 999.612 7.752C999.164 7.92267 998.791 8.264 998.492 8.776C998.215 9.26667 998.077 10.0027 998.077 10.984V11.464H996.413C996.413 9.69333 996.765 8.38133 997.469 7.528C998.194 6.65333 999.399 6.216 1001.08 6.216C1002.64 6.216 1003.73 6.70667 1004.35 7.688C1004.97 8.66933 1005.28 10.2587 1005.28 12.456V21.768C1005.28 21.9387 1005.28 22.2693 1005.28 22.76C1005.3 23.2293 1005.31 23.688 1005.31 24.136C1005.33 24.584 1005.35 24.872 1005.37 25H1003.9C1003.86 24.552 1003.8 24.0827 1003.74 23.592C1003.68 23.1013 1003.63 22.7493 1003.61 22.536C1003.34 23.304 1002.86 23.9547 1002.17 24.488C1001.49 25.0213 1000.68 25.288 999.741 25.288ZM1000.16 23.88C1000.69 23.88 1001.17 23.7627 1001.6 23.528C1002.02 23.272 1002.41 22.952 1002.75 22.568C1003.09 22.1627 1003.37 21.736 1003.58 21.288V15.208C1002.45 15.8053 1001.5 16.3173 1000.73 16.744C999.986 17.1707 999.388 17.576 998.94 17.96C998.514 18.344 998.205 18.7813 998.013 19.272C997.821 19.7413 997.724 20.3173 997.724 21C997.724 22.1093 997.98 22.8667 998.492 23.272C999.004 23.6773 999.559 23.88 1000.16 23.88Z" fill="white"/>
<path d="M1012.76 25.192C1011.91 25.192 1011.27 25.0213 1010.84 24.68C1010.42 24.3387 1010.14 23.88 1010.01 23.304C1009.88 22.728 1009.82 22.0773 1009.82 21.352V7.624H1007.39V6.504H1009.82V0.584H1011.52V6.504H1014.65V7.624H1011.52V21.128C1011.52 22.1307 1011.61 22.8347 1011.8 23.24C1012 23.6453 1012.43 23.848 1013.11 23.848C1013.33 23.848 1013.55 23.8373 1013.79 23.816C1014.04 23.7733 1014.28 23.7307 1014.49 23.688V25C1014.24 25.064 1013.95 25.1067 1013.63 25.128C1013.31 25.1707 1013.02 25.192 1012.76 25.192Z" fill="white"/>
<path d="M1017.36 25V6.504H1019.09V25H1017.36ZM1017.36 4.072V1.128H1019.09V4.072H1017.36Z" fill="white"/>
<path d="M1027.46 25.288C1026.24 25.288 1025.29 25.0213 1024.61 24.488C1023.95 23.9547 1023.48 23.1653 1023.2 22.12C1022.94 21.0747 1022.82 19.784 1022.82 18.248V13.256C1022.82 11.72 1022.94 10.4293 1023.2 9.384C1023.48 8.33867 1023.95 7.54933 1024.61 7.016C1025.29 6.48267 1026.24 6.216 1027.46 6.216C1028.69 6.216 1029.64 6.48267 1030.3 7.016C1030.99 7.54933 1031.46 8.33867 1031.71 9.384C1031.99 10.408 1032.13 11.6987 1032.13 13.256V18.248C1032.13 19.784 1031.99 21.0747 1031.71 22.12C1031.46 23.1653 1030.99 23.9547 1030.3 24.488C1029.64 25.0213 1028.69 25.288 1027.46 25.288ZM1027.46 24.008C1028.35 24.008 1029.01 23.784 1029.44 23.336C1029.87 22.8667 1030.13 22.2053 1030.24 21.352C1030.37 20.4987 1030.43 19.4853 1030.43 18.312V13.192C1030.43 11.9973 1030.37 10.984 1030.24 10.152C1030.13 9.29867 1029.87 8.648 1029.44 8.2C1029.01 7.73067 1028.35 7.496 1027.46 7.496C1026.56 7.496 1025.9 7.73067 1025.47 8.2C1025.07 8.648 1024.8 9.29867 1024.67 10.152C1024.57 10.984 1024.51 11.9973 1024.51 13.192V18.312C1024.51 19.4853 1024.57 20.4987 1024.67 21.352C1024.8 22.2053 1025.07 22.8667 1025.47 23.336C1025.9 23.784 1026.56 24.008 1027.46 24.008Z" fill="white"/>
<path d="M1035.42 25V6.504H1037.11V8.488C1037.69 7.80533 1038.35 7.26133 1039.1 6.856C1039.84 6.42933 1040.64 6.216 1041.5 6.216C1042.05 6.216 1042.54 6.35467 1042.97 6.632C1043.42 6.888 1043.77 7.31467 1044.03 7.912C1044.28 8.488 1044.41 9.26667 1044.41 10.248V25H1042.71V10.44C1042.71 9.30933 1042.53 8.54133 1042.17 8.136C1041.83 7.73067 1041.36 7.528 1040.76 7.528C1040.14 7.528 1039.51 7.72 1038.87 8.104C1038.26 8.46667 1037.67 8.95733 1037.11 9.576V25H1035.42Z" fill="white"/>
<path d="M1103.02 25.288C1101.57 25.288 1100.41 24.8187 1099.56 23.88C1098.71 22.92 1098.22 21.6293 1098.09 20.008L1099.53 19.592C1099.63 21.1493 1099.99 22.28 1100.58 22.984C1101.2 23.6667 1102.03 24.008 1103.08 24.008C1104.02 24.008 1104.74 23.752 1105.26 23.24C1105.77 22.7067 1106.02 21.96 1106.02 21C1106.02 20.3387 1105.8 19.656 1105.35 18.952C1104.93 18.2267 1104.24 17.4693 1103.3 16.68L1101.16 14.856C1100.24 14.0667 1099.57 13.32 1099.14 12.616C1098.72 11.8907 1098.5 11.0693 1098.5 10.152C1098.5 9.29867 1098.67 8.584 1099.02 8.008C1099.38 7.432 1099.87 6.99467 1100.49 6.696C1101.13 6.376 1101.86 6.216 1102.7 6.216C1104.08 6.216 1105.12 6.65333 1105.8 7.528C1106.48 8.40267 1106.85 9.576 1106.89 11.048L1105.64 11.432C1105.62 10.472 1105.48 9.704 1105.22 9.128C1104.99 8.552 1104.66 8.136 1104.23 7.88C1103.83 7.624 1103.35 7.496 1102.79 7.496C1101.98 7.496 1101.32 7.70933 1100.81 8.136C1100.32 8.54133 1100.07 9.14933 1100.07 9.96C1100.07 10.6427 1100.2 11.24 1100.46 11.752C1100.73 12.2427 1101.23 12.8187 1101.96 13.48L1104.17 15.432C1104.72 15.9013 1105.26 16.4027 1105.77 16.936C1106.28 17.4693 1106.7 18.0667 1107.02 18.728C1107.36 19.368 1107.53 20.136 1107.53 21.032C1107.53 21.928 1107.34 22.696 1106.95 23.336C1106.59 23.9547 1106.07 24.4347 1105.38 24.776C1104.72 25.1173 1103.93 25.288 1103.02 25.288Z" fill="white"/>
<path d="M1114.29 25.192C1113.44 25.192 1112.8 25.0213 1112.37 24.68C1111.95 24.3387 1111.67 23.88 1111.54 23.304C1111.41 22.728 1111.35 22.0773 1111.35 21.352V7.624H1108.92V6.504H1111.35V0.584H1113.05V6.504H1116.18V7.624H1113.05V21.128C1113.05 22.1307 1113.14 22.8347 1113.33 23.24C1113.53 23.6453 1113.96 23.848 1114.65 23.848C1114.86 23.848 1115.08 23.8373 1115.32 23.816C1115.57 23.7733 1115.81 23.7307 1116.02 23.688V25C1115.77 25.064 1115.48 25.1067 1115.16 25.128C1114.84 25.1707 1114.55 25.192 1114.29 25.192Z" fill="white"/>
<path d="M1121.74 25.288C1120.99 25.288 1120.34 25.1173 1119.79 24.776C1119.23 24.4347 1118.8 23.9653 1118.48 23.368C1118.18 22.7493 1118.03 22.0453 1118.03 21.256C1118.03 20.4667 1118.12 19.784 1118.32 19.208C1118.53 18.6107 1118.9 18.056 1119.44 17.544C1119.97 17.032 1120.73 16.4987 1121.71 15.944C1122.71 15.368 1124 14.7067 1125.58 13.96V12.648C1125.58 11.304 1125.5 10.2587 1125.32 9.512C1125.18 8.76533 1124.91 8.24266 1124.52 7.944C1124.16 7.64533 1123.66 7.496 1123.02 7.496C1122.53 7.496 1122.06 7.58133 1121.61 7.752C1121.16 7.92267 1120.79 8.264 1120.49 8.776C1120.22 9.26667 1120.08 10.0027 1120.08 10.984V11.464H1118.41C1118.41 9.69333 1118.76 8.38133 1119.47 7.528C1120.19 6.65333 1121.4 6.216 1123.08 6.216C1124.64 6.216 1125.73 6.70667 1126.35 7.688C1126.97 8.66933 1127.28 10.2587 1127.28 12.456V21.768C1127.28 21.9387 1127.28 22.2693 1127.28 22.76C1127.3 23.2293 1127.31 23.688 1127.31 24.136C1127.33 24.584 1127.35 24.872 1127.37 25H1125.9C1125.86 24.552 1125.8 24.0827 1125.74 23.592C1125.68 23.1013 1125.63 22.7493 1125.61 22.536C1125.34 23.304 1124.86 23.9547 1124.17 24.488C1123.49 25.0213 1122.68 25.288 1121.74 25.288ZM1122.16 23.88C1122.69 23.88 1123.17 23.7627 1123.6 23.528C1124.02 23.272 1124.41 22.952 1124.75 22.568C1125.09 22.1627 1125.37 21.736 1125.58 21.288V15.208C1124.45 15.8053 1123.5 16.3173 1122.73 16.744C1121.99 17.1707 1121.39 17.576 1120.94 17.96C1120.51 18.344 1120.2 18.7813 1120.01 19.272C1119.82 19.7413 1119.72 20.3173 1119.72 21C1119.72 22.1093 1119.98 22.8667 1120.49 23.272C1121 23.6773 1121.56 23.88 1122.16 23.88Z" fill="white"/>
<path d="M1134.76 25.192C1133.91 25.192 1133.27 25.0213 1132.84 24.68C1132.42 24.3387 1132.14 23.88 1132.01 23.304C1131.88 22.728 1131.82 22.0773 1131.82 21.352V7.624H1129.39V6.504H1131.82V0.584H1133.52V6.504H1136.65V7.624H1133.52V21.128C1133.52 22.1307 1133.61 22.8347 1133.8 23.24C1133.99 23.6453 1134.43 23.848 1135.11 23.848C1135.33 23.848 1135.55 23.8373 1135.79 23.816C1136.04 23.7733 1136.28 23.7307 1136.49 23.688V25C1136.23 25.064 1135.95 25.1067 1135.63 25.128C1135.31 25.1707 1135.02 25.192 1134.76 25.192Z" fill="white"/>
<path d="M1139.36 25V6.504H1141.09V25H1139.36ZM1139.36 4.072V1.128H1141.09V4.072H1139.36Z" fill="white"/>
<path d="M1149.46 25.288C1148.24 25.288 1147.29 25.0213 1146.61 24.488C1145.95 23.9547 1145.48 23.1653 1145.2 22.12C1144.94 21.0747 1144.82 19.784 1144.82 18.248V13.256C1144.82 11.72 1144.94 10.4293 1145.2 9.384C1145.48 8.33867 1145.95 7.54933 1146.61 7.016C1147.29 6.48267 1148.24 6.216 1149.46 6.216C1150.69 6.216 1151.64 6.48267 1152.3 7.016C1152.99 7.54933 1153.46 8.33867 1153.71 9.384C1153.99 10.408 1154.13 11.6987 1154.13 13.256V18.248C1154.13 19.784 1153.99 21.0747 1153.71 22.12C1153.46 23.1653 1152.99 23.9547 1152.3 24.488C1151.64 25.0213 1150.69 25.288 1149.46 25.288ZM1149.46 24.008C1150.35 24.008 1151.01 23.784 1151.44 23.336C1151.87 22.8667 1152.13 22.2053 1152.24 21.352C1152.37 20.4987 1152.43 19.4853 1152.43 18.312V13.192C1152.43 11.9973 1152.37 10.984 1152.24 10.152C1152.13 9.29867 1151.87 8.648 1151.44 8.2C1151.01 7.73067 1150.35 7.496 1149.46 7.496C1148.56 7.496 1147.9 7.73067 1147.47 8.2C1147.07 8.648 1146.8 9.29867 1146.67 10.152C1146.57 10.984 1146.51 11.9973 1146.51 13.192V18.312C1146.51 19.4853 1146.57 20.4987 1146.67 21.352C1146.8 22.2053 1147.07 22.8667 1147.47 23.336C1147.9 23.784 1148.56 24.008 1149.46 24.008Z" fill="white"/>
<path d="M1157.42 25V6.504H1159.11V8.488C1159.69 7.80533 1160.35 7.26133 1161.1 6.856C1161.84 6.42933 1162.64 6.216 1163.5 6.216C1164.05 6.216 1164.54 6.35467 1164.97 6.632C1165.42 6.888 1165.77 7.31467 1166.03 7.912C1166.28 8.488 1166.41 9.26667 1166.41 10.248V25H1164.71V10.44C1164.71 9.30933 1164.53 8.54133 1164.17 8.136C1163.83 7.73067 1163.36 7.528 1162.76 7.528C1162.14 7.528 1161.51 7.72 1160.87 8.104C1160.26 8.46667 1159.67 8.95733 1159.11 9.576V25H1157.42Z" fill="white"/>
<path d="M1225.02 25.288C1223.57 25.288 1222.41 24.8187 1221.56 23.88C1220.71 22.92 1220.22 21.6293 1220.09 20.008L1221.53 19.592C1221.63 21.1493 1221.99 22.28 1222.58 22.984C1223.2 23.6667 1224.03 24.008 1225.08 24.008C1226.02 24.008 1226.74 23.752 1227.26 23.24C1227.77 22.7067 1228.02 21.96 1228.02 21C1228.02 20.3387 1227.8 19.656 1227.35 18.952C1226.93 18.2267 1226.24 17.4693 1225.3 16.68L1223.16 14.856C1222.24 14.0667 1221.57 13.32 1221.14 12.616C1220.72 11.8907 1220.5 11.0693 1220.5 10.152C1220.5 9.29867 1220.67 8.584 1221.02 8.008C1221.38 7.432 1221.87 6.99467 1222.49 6.696C1223.13 6.376 1223.86 6.216 1224.7 6.216C1226.08 6.216 1227.12 6.65333 1227.8 7.528C1228.48 8.40267 1228.85 9.576 1228.89 11.048L1227.64 11.432C1227.62 10.472 1227.48 9.704 1227.22 9.128C1226.99 8.552 1226.66 8.136 1226.23 7.88C1225.83 7.624 1225.35 7.496 1224.79 7.496C1223.98 7.496 1223.32 7.70933 1222.81 8.136C1222.32 8.54133 1222.07 9.14933 1222.07 9.96C1222.07 10.6427 1222.2 11.24 1222.46 11.752C1222.73 12.2427 1223.23 12.8187 1223.96 13.48L1226.17 15.432C1226.72 15.9013 1227.26 16.4027 1227.77 16.936C1228.28 17.4693 1228.7 18.0667 1229.02 18.728C1229.36 19.368 1229.53 20.136 1229.53 21.032C1229.53 21.928 1229.34 22.696 1228.95 23.336C1228.59 23.9547 1228.07 24.4347 1227.38 24.776C1226.72 25.1173 1225.93 25.288 1225.02 25.288Z" fill="white"/>
<path d="M1236.29 25.192C1235.44 25.192 1234.8 25.0213 1234.37 24.68C1233.95 24.3387 1233.67 23.88 1233.54 23.304C1233.41 22.728 1233.35 22.0773 1233.35 21.352V7.624H1230.92V6.504H1233.35V0.584H1235.05V6.504H1238.18V7.624H1235.05V21.128C1235.05 22.1307 1235.14 22.8347 1235.33 23.24C1235.53 23.6453 1235.96 23.848 1236.65 23.848C1236.86 23.848 1237.08 23.8373 1237.32 23.816C1237.57 23.7733 1237.81 23.7307 1238.02 23.688V25C1237.77 25.064 1237.48 25.1067 1237.16 25.128C1236.84 25.1707 1236.55 25.192 1236.29 25.192Z" fill="white"/>
<path d="M1243.74 25.288C1242.99 25.288 1242.34 25.1173 1241.79 24.776C1241.23 24.4347 1240.8 23.9653 1240.48 23.368C1240.18 22.7493 1240.03 22.0453 1240.03 21.256C1240.03 20.4667 1240.12 19.784 1240.32 19.208C1240.53 18.6107 1240.9 18.056 1241.44 17.544C1241.97 17.032 1242.73 16.4987 1243.71 15.944C1244.71 15.368 1246 14.7067 1247.58 13.96V12.648C1247.58 11.304 1247.5 10.2587 1247.32 9.512C1247.18 8.76533 1246.91 8.24266 1246.52 7.944C1246.16 7.64533 1245.66 7.496 1245.02 7.496C1244.53 7.496 1244.06 7.58133 1243.61 7.752C1243.16 7.92267 1242.79 8.264 1242.49 8.776C1242.22 9.26667 1242.08 10.0027 1242.08 10.984V11.464H1240.41C1240.41 9.69333 1240.76 8.38133 1241.47 7.528C1242.19 6.65333 1243.4 6.216 1245.08 6.216C1246.64 6.216 1247.73 6.70667 1248.35 7.688C1248.97 8.66933 1249.28 10.2587 1249.28 12.456V21.768C1249.28 21.9387 1249.28 22.2693 1249.28 22.76C1249.3 23.2293 1249.31 23.688 1249.31 24.136C1249.33 24.584 1249.35 24.872 1249.37 25H1247.9C1247.86 24.552 1247.8 24.0827 1247.74 23.592C1247.68 23.1013 1247.63 22.7493 1247.61 22.536C1247.34 23.304 1246.86 23.9547 1246.17 24.488C1245.49 25.0213 1244.68 25.288 1243.74 25.288ZM1244.16 23.88C1244.69 23.88 1245.17 23.7627 1245.6 23.528C1246.02 23.272 1246.41 22.952 1246.75 22.568C1247.09 22.1627 1247.37 21.736 1247.58 21.288V15.208C1246.45 15.8053 1245.5 16.3173 1244.73 16.744C1243.99 17.1707 1243.39 17.576 1242.94 17.96C1242.51 18.344 1242.2 18.7813 1242.01 19.272C1241.82 19.7413 1241.72 20.3173 1241.72 21C1241.72 22.1093 1241.98 22.8667 1242.49 23.272C1243 23.6773 1243.56 23.88 1244.16 23.88Z" fill="white"/>
<path d="M1256.76 25.192C1255.91 25.192 1255.27 25.0213 1254.84 24.68C1254.42 24.3387 1254.14 23.88 1254.01 23.304C1253.88 22.728 1253.82 22.0773 1253.82 21.352V7.624H1251.39V6.504H1253.82V0.584H1255.52V6.504H1258.65V7.624H1255.52V21.128C1255.52 22.1307 1255.61 22.8347 1255.8 23.24C1255.99 23.6453 1256.43 23.848 1257.11 23.848C1257.33 23.848 1257.55 23.8373 1257.79 23.816C1258.04 23.7733 1258.28 23.7307 1258.49 23.688V25C1258.23 25.064 1257.95 25.1067 1257.63 25.128C1257.31 25.1707 1257.02 25.192 1256.76 25.192Z" fill="white"/>
<path d="M1261.36 25V6.504H1263.09V25H1261.36ZM1261.36 4.072V1.128H1263.09V4.072H1261.36Z" fill="white"/>
<path d="M1271.46 25.288C1270.24 25.288 1269.29 25.0213 1268.61 24.488C1267.95 23.9547 1267.48 23.1653 1267.2 22.12C1266.94 21.0747 1266.82 19.784 1266.82 18.248V13.256C1266.82 11.72 1266.94 10.4293 1267.2 9.384C1267.48 8.33867 1267.95 7.54933 1268.61 7.016C1269.29 6.48267 1270.24 6.216 1271.46 6.216C1272.69 6.216 1273.64 6.48267 1274.3 7.016C1274.99 7.54933 1275.46 8.33867 1275.71 9.384C1275.99 10.408 1276.13 11.6987 1276.13 13.256V18.248C1276.13 19.784 1275.99 21.0747 1275.71 22.12C1275.46 23.1653 1274.99 23.9547 1274.3 24.488C1273.64 25.0213 1272.69 25.288 1271.46 25.288ZM1271.46 24.008C1272.35 24.008 1273.01 23.784 1273.44 23.336C1273.87 22.8667 1274.13 22.2053 1274.24 21.352C1274.37 20.4987 1274.43 19.4853 1274.43 18.312V13.192C1274.43 11.9973 1274.37 10.984 1274.24 10.152C1274.13 9.29867 1273.87 8.648 1273.44 8.2C1273.01 7.73067 1272.35 7.496 1271.46 7.496C1270.56 7.496 1269.9 7.73067 1269.47 8.2C1269.07 8.648 1268.8 9.29867 1268.67 10.152C1268.57 10.984 1268.51 11.9973 1268.51 13.192V18.312C1268.51 19.4853 1268.57 20.4987 1268.67 21.352C1268.8 22.2053 1269.07 22.8667 1269.47 23.336C1269.9 23.784 1270.56 24.008 1271.46 24.008Z" fill="white"/>
<path d="M1279.42 25V6.504H1281.11V8.488C1281.69 7.80533 1282.35 7.26133 1283.1 6.856C1283.84 6.42933 1284.64 6.216 1285.5 6.216C1286.05 6.216 1286.54 6.35467 1286.97 6.632C1287.42 6.888 1287.77 7.31467 1288.03 7.912C1288.28 8.488 1288.41 9.26667 1288.41 10.248V25H1286.71V10.44C1286.71 9.30933 1286.53 8.54133 1286.17 8.136C1285.83 7.73067 1285.36 7.528 1284.76 7.528C1284.14 7.528 1283.51 7.72 1282.87 8.104C1282.26 8.46667 1281.67 8.95733 1281.11 9.576V25H1279.42Z" fill="white"/>
<path d="M1347.02 25.288C1345.57 25.288 1344.41 24.8187 1343.56 23.88C1342.71 22.92 1342.22 21.6293 1342.09 20.008L1343.53 19.592C1343.63 21.1493 1343.99 22.28 1344.58 22.984C1345.2 23.6667 1346.03 24.008 1347.08 24.008C1348.02 24.008 1348.74 23.752 1349.26 23.24C1349.77 22.7067 1350.02 21.96 1350.02 21C1350.02 20.3387 1349.8 19.656 1349.35 18.952C1348.93 18.2267 1348.24 17.4693 1347.3 16.68L1345.16 14.856C1344.24 14.0667 1343.57 13.32 1343.14 12.616C1342.72 11.8907 1342.5 11.0693 1342.5 10.152C1342.5 9.29867 1342.67 8.584 1343.02 8.008C1343.38 7.432 1343.87 6.99467 1344.49 6.696C1345.13 6.376 1345.86 6.216 1346.7 6.216C1348.08 6.216 1349.12 6.65333 1349.8 7.528C1350.48 8.40267 1350.85 9.576 1350.89 11.048L1349.64 11.432C1349.62 10.472 1349.48 9.704 1349.22 9.128C1348.99 8.552 1348.66 8.136 1348.23 7.88C1347.83 7.624 1347.35 7.496 1346.79 7.496C1345.98 7.496 1345.32 7.70933 1344.81 8.136C1344.32 8.54133 1344.07 9.14933 1344.07 9.96C1344.07 10.6427 1344.2 11.24 1344.46 11.752C1344.73 12.2427 1345.23 12.8187 1345.96 13.48L1348.17 15.432C1348.72 15.9013 1349.26 16.4027 1349.77 16.936C1350.28 17.4693 1350.7 18.0667 1351.02 18.728C1351.36 19.368 1351.53 20.136 1351.53 21.032C1351.53 21.928 1351.34 22.696 1350.95 23.336C1350.59 23.9547 1350.07 24.4347 1349.38 24.776C1348.72 25.1173 1347.93 25.288 1347.02 25.288Z" fill="white"/>
<path d="M1358.29 25.192C1357.44 25.192 1356.8 25.0213 1356.37 24.68C1355.95 24.3387 1355.67 23.88 1355.54 23.304C1355.41 22.728 1355.35 22.0773 1355.35 21.352V7.624H1352.92V6.504H1355.35V0.584H1357.05V6.504H1360.18V7.624H1357.05V21.128C1357.05 22.1307 1357.14 22.8347 1357.33 23.24C1357.53 23.6453 1357.96 23.848 1358.65 23.848C1358.86 23.848 1359.08 23.8373 1359.32 23.816C1359.57 23.7733 1359.81 23.7307 1360.02 23.688V25C1359.77 25.064 1359.48 25.1067 1359.16 25.128C1358.84 25.1707 1358.55 25.192 1358.29 25.192Z" fill="white"/>
<path d="M1365.74 25.288C1364.99 25.288 1364.34 25.1173 1363.79 24.776C1363.23 24.4347 1362.8 23.9653 1362.48 23.368C1362.18 22.7493 1362.03 22.0453 1362.03 21.256C1362.03 20.4667 1362.12 19.784 1362.32 19.208C1362.53 18.6107 1362.9 18.056 1363.44 17.544C1363.97 17.032 1364.73 16.4987 1365.71 15.944C1366.71 15.368 1368 14.7067 1369.58 13.96V12.648C1369.58 11.304 1369.5 10.2587 1369.32 9.512C1369.18 8.76533 1368.91 8.24266 1368.52 7.944C1368.16 7.64533 1367.66 7.496 1367.02 7.496C1366.53 7.496 1366.06 7.58133 1365.61 7.752C1365.16 7.92267 1364.79 8.264 1364.49 8.776C1364.22 9.26667 1364.08 10.0027 1364.08 10.984V11.464H1362.41C1362.41 9.69333 1362.76 8.38133 1363.47 7.528C1364.19 6.65333 1365.4 6.216 1367.08 6.216C1368.64 6.216 1369.73 6.70667 1370.35 7.688C1370.97 8.66933 1371.28 10.2587 1371.28 12.456V21.768C1371.28 21.9387 1371.28 22.2693 1371.28 22.76C1371.3 23.2293 1371.31 23.688 1371.31 24.136C1371.33 24.584 1371.35 24.872 1371.37 25H1369.9C1369.86 24.552 1369.8 24.0827 1369.74 23.592C1369.68 23.1013 1369.63 22.7493 1369.61 22.536C1369.34 23.304 1368.86 23.9547 1368.17 24.488C1367.49 25.0213 1366.68 25.288 1365.74 25.288ZM1366.16 23.88C1366.69 23.88 1367.17 23.7627 1367.6 23.528C1368.02 23.272 1368.41 22.952 1368.75 22.568C1369.09 22.1627 1369.37 21.736 1369.58 21.288V15.208C1368.45 15.8053 1367.5 16.3173 1366.73 16.744C1365.99 17.1707 1365.39 17.576 1364.94 17.96C1364.51 18.344 1364.2 18.7813 1364.01 19.272C1363.82 19.7413 1363.72 20.3173 1363.72 21C1363.72 22.1093 1363.98 22.8667 1364.49 23.272C1365 23.6773 1365.56 23.88 1366.16 23.88Z" fill="white"/>
<path d="M1378.76 25.192C1377.91 25.192 1377.27 25.0213 1376.84 24.68C1376.42 24.3387 1376.14 23.88 1376.01 23.304C1375.88 22.728 1375.82 22.0773 1375.82 21.352V7.624H1373.39V6.504H1375.82V0.584H1377.52V6.504H1380.65V7.624H1377.52V21.128C1377.52 22.1307 1377.61 22.8347 1377.8 23.24C1377.99 23.6453 1378.43 23.848 1379.11 23.848C1379.33 23.848 1379.55 23.8373 1379.79 23.816C1380.04 23.7733 1380.28 23.7307 1380.49 23.688V25C1380.23 25.064 1379.95 25.1067 1379.63 25.128C1379.31 25.1707 1379.02 25.192 1378.76 25.192Z" fill="white"/>
<path d="M1383.36 25V6.504H1385.09V25H1383.36ZM1383.36 4.072V1.128H1385.09V4.072H1383.36Z" fill="white"/>
<path d="M1393.46 25.288C1392.24 25.288 1391.29 25.0213 1390.61 24.488C1389.95 23.9547 1389.48 23.1653 1389.2 22.12C1388.94 21.0747 1388.82 19.784 1388.82 18.248V13.256C1388.82 11.72 1388.94 10.4293 1389.2 9.384C1389.48 8.33867 1389.95 7.54933 1390.61 7.016C1391.29 6.48267 1392.24 6.216 1393.46 6.216C1394.69 6.216 1395.64 6.48267 1396.3 7.016C1396.99 7.54933 1397.46 8.33867 1397.71 9.384C1397.99 10.408 1398.13 11.6987 1398.13 13.256V18.248C1398.13 19.784 1397.99 21.0747 1397.71 22.12C1397.46 23.1653 1396.99 23.9547 1396.3 24.488C1395.64 25.0213 1394.69 25.288 1393.46 25.288ZM1393.46 24.008C1394.35 24.008 1395.01 23.784 1395.44 23.336C1395.87 22.8667 1396.13 22.2053 1396.24 21.352C1396.37 20.4987 1396.43 19.4853 1396.43 18.312V13.192C1396.43 11.9973 1396.37 10.984 1396.24 10.152C1396.13 9.29867 1395.87 8.648 1395.44 8.2C1395.01 7.73067 1394.35 7.496 1393.46 7.496C1392.56 7.496 1391.9 7.73067 1391.47 8.2C1391.07 8.648 1390.8 9.29867 1390.67 10.152C1390.57 10.984 1390.51 11.9973 1390.51 13.192V18.312C1390.51 19.4853 1390.57 20.4987 1390.67 21.352C1390.8 22.2053 1391.07 22.8667 1391.47 23.336C1391.9 23.784 1392.56 24.008 1393.46 24.008Z" fill="white"/>
<path d="M1401.42 25V6.504H1403.11V8.488C1403.69 7.80533 1404.35 7.26133 1405.1 6.856C1405.84 6.42933 1406.64 6.216 1407.5 6.216C1408.05 6.216 1408.54 6.35467 1408.97 6.632C1409.42 6.888 1409.77 7.31467 1410.03 7.912C1410.28 8.488 1410.41 9.26667 1410.41 10.248V25H1408.71V10.44C1408.71 9.30933 1408.53 8.54133 1408.17 8.136C1407.83 7.73067 1407.36 7.528 1406.76 7.528C1406.14 7.528 1405.51 7.72 1404.87 8.104C1404.26 8.46667 1403.67 8.95733 1403.11 9.576V25H1401.42Z" fill="white"/>
<path d="M1469.02 25.288C1467.57 25.288 1466.41 24.8187 1465.56 23.88C1464.71 22.92 1464.22 21.6293 1464.09 20.008L1465.53 19.592C1465.63 21.1493 1465.99 22.28 1466.58 22.984C1467.2 23.6667 1468.03 24.008 1469.08 24.008C1470.02 24.008 1470.74 23.752 1471.26 23.24C1471.77 22.7067 1472.02 21.96 1472.02 21C1472.02 20.3387 1471.8 19.656 1471.35 18.952C1470.93 18.2267 1470.24 17.4693 1469.3 16.68L1467.16 14.856C1466.24 14.0667 1465.57 13.32 1465.14 12.616C1464.72 11.8907 1464.5 11.0693 1464.5 10.152C1464.5 9.29867 1464.67 8.584 1465.02 8.008C1465.38 7.432 1465.87 6.99467 1466.49 6.696C1467.13 6.376 1467.86 6.216 1468.7 6.216C1470.08 6.216 1471.12 6.65333 1471.8 7.528C1472.48 8.40267 1472.85 9.576 1472.89 11.048L1471.64 11.432C1471.62 10.472 1471.48 9.704 1471.22 9.128C1470.99 8.552 1470.66 8.136 1470.23 7.88C1469.83 7.624 1469.35 7.496 1468.79 7.496C1467.98 7.496 1467.32 7.70933 1466.81 8.136C1466.32 8.54133 1466.07 9.14933 1466.07 9.96C1466.07 10.6427 1466.2 11.24 1466.46 11.752C1466.73 12.2427 1467.23 12.8187 1467.96 13.48L1470.17 15.432C1470.72 15.9013 1471.26 16.4027 1471.77 16.936C1472.28 17.4693 1472.7 18.0667 1473.02 18.728C1473.36 19.368 1473.53 20.136 1473.53 21.032C1473.53 21.928 1473.34 22.696 1472.95 23.336C1472.59 23.9547 1472.07 24.4347 1471.38 24.776C1470.72 25.1173 1469.93 25.288 1469.02 25.288Z" fill="white"/>
<path d="M1480.29 25.192C1479.44 25.192 1478.8 25.0213 1478.37 24.68C1477.95 24.3387 1477.67 23.88 1477.54 23.304C1477.41 22.728 1477.35 22.0773 1477.35 21.352V7.624H1474.92V6.504H1477.35V0.584H1479.05V6.504H1482.18V7.624H1479.05V21.128C1479.05 22.1307 1479.14 22.8347 1479.33 23.24C1479.53 23.6453 1479.96 23.848 1480.65 23.848C1480.86 23.848 1481.08 23.8373 1481.32 23.816C1481.57 23.7733 1481.81 23.7307 1482.02 23.688V25C1481.77 25.064 1481.48 25.1067 1481.16 25.128C1480.84 25.1707 1480.55 25.192 1480.29 25.192Z" fill="white"/>
<path d="M1487.74 25.288C1486.99 25.288 1486.34 25.1173 1485.79 24.776C1485.23 24.4347 1484.8 23.9653 1484.48 23.368C1484.18 22.7493 1484.03 22.0453 1484.03 21.256C1484.03 20.4667 1484.12 19.784 1484.32 19.208C1484.53 18.6107 1484.9 18.056 1485.44 17.544C1485.97 17.032 1486.73 16.4987 1487.71 15.944C1488.71 15.368 1490 14.7067 1491.58 13.96V12.648C1491.58 11.304 1491.5 10.2587 1491.32 9.512C1491.18 8.76533 1490.91 8.24266 1490.52 7.944C1490.16 7.64533 1489.66 7.496 1489.02 7.496C1488.53 7.496 1488.06 7.58133 1487.61 7.752C1487.16 7.92267 1486.79 8.264 1486.49 8.776C1486.22 9.26667 1486.08 10.0027 1486.08 10.984V11.464H1484.41C1484.41 9.69333 1484.76 8.38133 1485.47 7.528C1486.19 6.65333 1487.4 6.216 1489.08 6.216C1490.64 6.216 1491.73 6.70667 1492.35 7.688C1492.97 8.66933 1493.28 10.2587 1493.28 12.456V21.768C1493.28 21.9387 1493.28 22.2693 1493.28 22.76C1493.3 23.2293 1493.31 23.688 1493.31 24.136C1493.33 24.584 1493.35 24.872 1493.37 25H1491.9C1491.86 24.552 1491.8 24.0827 1491.74 23.592C1491.68 23.1013 1491.63 22.7493 1491.61 22.536C1491.34 23.304 1490.86 23.9547 1490.17 24.488C1489.49 25.0213 1488.68 25.288 1487.74 25.288ZM1488.16 23.88C1488.69 23.88 1489.17 23.7627 1489.6 23.528C1490.02 23.272 1490.41 22.952 1490.75 22.568C1491.09 22.1627 1491.37 21.736 1491.58 21.288V15.208C1490.45 15.8053 1489.5 16.3173 1488.73 16.744C1487.99 17.1707 1487.39 17.576 1486.94 17.96C1486.51 18.344 1486.2 18.7813 1486.01 19.272C1485.82 19.7413 1485.72 20.3173 1485.72 21C1485.72 22.1093 1485.98 22.8667 1486.49 23.272C1487 23.6773 1487.56 23.88 1488.16 23.88Z" fill="white"/>
<path d="M1500.76 25.192C1499.91 25.192 1499.27 25.0213 1498.84 24.68C1498.42 24.3387 1498.14 23.88 1498.01 23.304C1497.88 22.728 1497.82 22.0773 1497.82 21.352V7.624H1495.39V6.504H1497.82V0.584H1499.52V6.504H1502.65V7.624H1499.52V21.128C1499.52 22.1307 1499.61 22.8347 1499.8 23.24C1499.99 23.6453 1500.43 23.848 1501.11 23.848C1501.33 23.848 1501.55 23.8373 1501.79 23.816C1502.04 23.7733 1502.28 23.7307 1502.49 23.688V25C1502.23 25.064 1501.95 25.1067 1501.63 25.128C1501.31 25.1707 1501.02 25.192 1500.76 25.192Z" fill="white"/>
<path d="M1505.36 25V6.504H1507.09V25H1505.36ZM1505.36 4.072V1.128H1507.09V4.072H1505.36Z" fill="white"/>
<path d="M1515.46 25.288C1514.24 25.288 1513.29 25.0213 1512.61 24.488C1511.95 23.9547 1511.48 23.1653 1511.2 22.12C1510.94 21.0747 1510.82 19.784 1510.82 18.248V13.256C1510.82 11.72 1510.94 10.4293 1511.2 9.384C1511.48 8.33867 1511.95 7.54933 1512.61 7.016C1513.29 6.48267 1514.24 6.216 1515.46 6.216C1516.69 6.216 1517.64 6.48267 1518.3 7.016C1518.99 7.54933 1519.46 8.33867 1519.71 9.384C1519.99 10.408 1520.13 11.6987 1520.13 13.256V18.248C1520.13 19.784 1519.99 21.0747 1519.71 22.12C1519.46 23.1653 1518.99 23.9547 1518.3 24.488C1517.64 25.0213 1516.69 25.288 1515.46 25.288ZM1515.46 24.008C1516.35 24.008 1517.01 23.784 1517.44 23.336C1517.87 22.8667 1518.13 22.2053 1518.24 21.352C1518.37 20.4987 1518.43 19.4853 1518.43 18.312V13.192C1518.43 11.9973 1518.37 10.984 1518.24 10.152C1518.13 9.29867 1517.87 8.648 1517.44 8.2C1517.01 7.73067 1516.35 7.496 1515.46 7.496C1514.56 7.496 1513.9 7.73067 1513.47 8.2C1513.07 8.648 1512.8 9.29867 1512.67 10.152C1512.57 10.984 1512.51 11.9973 1512.51 13.192V18.312C1512.51 19.4853 1512.57 20.4987 1512.67 21.352C1512.8 22.2053 1513.07 22.8667 1513.47 23.336C1513.9 23.784 1514.56 24.008 1515.46 24.008Z" fill="white"/>
<path d="M1523.42 25V6.504H1525.11V8.488C1525.69 7.80533 1526.35 7.26133 1527.1 6.856C1527.84 6.42933 1528.64 6.216 1529.5 6.216C1530.05 6.216 1530.54 6.35467 1530.97 6.632C1531.42 6.888 1531.77 7.31467 1532.03 7.912C1532.28 8.488 1532.41 9.26667 1532.41 10.248V25H1530.71V10.44C1530.71 9.30933 1530.53 8.54133 1530.17 8.136C1529.83 7.73067 1529.36 7.528 1528.76 7.528C1528.14 7.528 1527.51 7.72 1526.87 8.104C1526.26 8.46667 1525.67 8.95733 1525.11 9.576V25H1523.42Z" fill="white"/>
<path d="M1591.02 25.288C1589.57 25.288 1588.41 24.8187 1587.56 23.88C1586.71 22.92 1586.22 21.6293 1586.09 20.008L1587.53 19.592C1587.63 21.1493 1587.99 22.28 1588.58 22.984C1589.2 23.6667 1590.03 24.008 1591.08 24.008C1592.02 24.008 1592.74 23.752 1593.26 23.24C1593.77 22.7067 1594.02 21.96 1594.02 21C1594.02 20.3387 1593.8 19.656 1593.35 18.952C1592.93 18.2267 1592.24 17.4693 1591.3 16.68L1589.16 14.856C1588.24 14.0667 1587.57 13.32 1587.14 12.616C1586.72 11.8907 1586.5 11.0693 1586.5 10.152C1586.5 9.29867 1586.67 8.584 1587.02 8.008C1587.38 7.432 1587.87 6.99467 1588.49 6.696C1589.13 6.376 1589.86 6.216 1590.7 6.216C1592.08 6.216 1593.12 6.65333 1593.8 7.528C1594.48 8.40267 1594.85 9.576 1594.89 11.048L1593.64 11.432C1593.62 10.472 1593.48 9.704 1593.22 9.128C1592.99 8.552 1592.66 8.136 1592.23 7.88C1591.83 7.624 1591.35 7.496 1590.79 7.496C1589.98 7.496 1589.32 7.70933 1588.81 8.136C1588.32 8.54133 1588.07 9.14933 1588.07 9.96C1588.07 10.6427 1588.2 11.24 1588.46 11.752C1588.73 12.2427 1589.23 12.8187 1589.96 13.48L1592.17 15.432C1592.72 15.9013 1593.26 16.4027 1593.77 16.936C1594.28 17.4693 1594.7 18.0667 1595.02 18.728C1595.36 19.368 1595.53 20.136 1595.53 21.032C1595.53 21.928 1595.34 22.696 1594.95 23.336C1594.59 23.9547 1594.07 24.4347 1593.38 24.776C1592.72 25.1173 1591.93 25.288 1591.02 25.288Z" fill="white"/>
<path d="M1602.29 25.192C1601.44 25.192 1600.8 25.0213 1600.37 24.68C1599.95 24.3387 1599.67 23.88 1599.54 23.304C1599.41 22.728 1599.35 22.0773 1599.35 21.352V7.624H1596.92V6.504H1599.35V0.584H1601.05V6.504H1604.18V7.624H1601.05V21.128C1601.05 22.1307 1601.14 22.8347 1601.33 23.24C1601.53 23.6453 1601.96 23.848 1602.65 23.848C1602.86 23.848 1603.08 23.8373 1603.32 23.816C1603.57 23.7733 1603.81 23.7307 1604.02 23.688V25C1603.77 25.064 1603.48 25.1067 1603.16 25.128C1602.84 25.1707 1602.55 25.192 1602.29 25.192Z" fill="white"/>
<path d="M1609.74 25.288C1608.99 25.288 1608.34 25.1173 1607.79 24.776C1607.23 24.4347 1606.8 23.9653 1606.48 23.368C1606.18 22.7493 1606.03 22.0453 1606.03 21.256C1606.03 20.4667 1606.12 19.784 1606.32 19.208C1606.53 18.6107 1606.9 18.056 1607.44 17.544C1607.97 17.032 1608.73 16.4987 1609.71 15.944C1610.71 15.368 1612 14.7067 1613.58 13.96V12.648C1613.58 11.304 1613.5 10.2587 1613.32 9.512C1613.18 8.76533 1612.91 8.24266 1612.52 7.944C1612.16 7.64533 1611.66 7.496 1611.02 7.496C1610.53 7.496 1610.06 7.58133 1609.61 7.752C1609.16 7.92267 1608.79 8.264 1608.49 8.776C1608.22 9.26667 1608.08 10.0027 1608.08 10.984V11.464H1606.41C1606.41 9.69333 1606.76 8.38133 1607.47 7.528C1608.19 6.65333 1609.4 6.216 1611.08 6.216C1612.64 6.216 1613.73 6.70667 1614.35 7.688C1614.97 8.66933 1615.28 10.2587 1615.28 12.456V21.768C1615.28 21.9387 1615.28 22.2693 1615.28 22.76C1615.3 23.2293 1615.31 23.688 1615.31 24.136C1615.33 24.584 1615.35 24.872 1615.37 25H1613.9C1613.86 24.552 1613.8 24.0827 1613.74 23.592C1613.68 23.1013 1613.63 22.7493 1613.61 22.536C1613.34 23.304 1612.86 23.9547 1612.17 24.488C1611.49 25.0213 1610.68 25.288 1609.74 25.288ZM1610.16 23.88C1610.69 23.88 1611.17 23.7627 1611.6 23.528C1612.02 23.272 1612.41 22.952 1612.75 22.568C1613.09 22.1627 1613.37 21.736 1613.58 21.288V15.208C1612.45 15.8053 1611.5 16.3173 1610.73 16.744C1609.99 17.1707 1609.39 17.576 1608.94 17.96C1608.51 18.344 1608.2 18.7813 1608.01 19.272C1607.82 19.7413 1607.72 20.3173 1607.72 21C1607.72 22.1093 1607.98 22.8667 1608.49 23.272C1609 23.6773 1609.56 23.88 1610.16 23.88Z" fill="white"/>
<path d="M1622.76 25.192C1621.91 25.192 1621.27 25.0213 1620.84 24.68C1620.42 24.3387 1620.14 23.88 1620.01 23.304C1619.88 22.728 1619.82 22.0773 1619.82 21.352V7.624H1617.39V6.504H1619.82V0.584H1621.52V6.504H1624.65V7.624H1621.52V21.128C1621.52 22.1307 1621.61 22.8347 1621.8 23.24C1621.99 23.6453 1622.43 23.848 1623.11 23.848C1623.33 23.848 1623.55 23.8373 1623.79 23.816C1624.04 23.7733 1624.28 23.7307 1624.49 23.688V25C1624.23 25.064 1623.95 25.1067 1623.63 25.128C1623.31 25.1707 1623.02 25.192 1622.76 25.192Z" fill="white"/>
<path d="M1627.36 25V6.504H1629.09V25H1627.36ZM1627.36 4.072V1.128H1629.09V4.072H1627.36Z" fill="white"/>
<path d="M1637.46 25.288C1636.24 25.288 1635.29 25.0213 1634.61 24.488C1633.95 23.9547 1633.48 23.1653 1633.2 22.12C1632.94 21.0747 1632.82 19.784 1632.82 18.248V13.256C1632.82 11.72 1632.94 10.4293 1633.2 9.384C1633.48 8.33867 1633.95 7.54933 1634.61 7.016C1635.29 6.48267 1636.24 6.216 1637.46 6.216C1638.69 6.216 1639.64 6.48267 1640.3 7.016C1640.99 7.54933 1641.46 8.33867 1641.71 9.384C1641.99 10.408 1642.13 11.6987 1642.13 13.256V18.248C1642.13 19.784 1641.99 21.0747 1641.71 22.12C1641.46 23.1653 1640.99 23.9547 1640.3 24.488C1639.64 25.0213 1638.69 25.288 1637.46 25.288ZM1637.46 24.008C1638.35 24.008 1639.01 23.784 1639.44 23.336C1639.87 22.8667 1640.13 22.2053 1640.24 21.352C1640.37 20.4987 1640.43 19.4853 1640.43 18.312V13.192C1640.43 11.9973 1640.37 10.984 1640.24 10.152C1640.13 9.29867 1639.87 8.648 1639.44 8.2C1639.01 7.73067 1638.35 7.496 1637.46 7.496C1636.56 7.496 1635.9 7.73067 1635.47 8.2C1635.07 8.648 1634.8 9.29867 1634.67 10.152C1634.57 10.984 1634.51 11.9973 1634.51 13.192V18.312C1634.51 19.4853 1634.57 20.4987 1634.67 21.352C1634.8 22.2053 1635.07 22.8667 1635.47 23.336C1635.9 23.784 1636.56 24.008 1637.46 24.008Z" fill="white"/>
<path d="M1645.42 25V6.504H1647.11V8.488C1647.69 7.80533 1648.35 7.26133 1649.1 6.856C1649.84 6.42933 1650.64 6.216 1651.5 6.216C1652.05 6.216 1652.54 6.35467 1652.97 6.632C1653.42 6.888 1653.77 7.31467 1654.03 7.912C1654.28 8.488 1654.41 9.26667 1654.41 10.248V25H1652.71V10.44C1652.71 9.30933 1652.53 8.54133 1652.17 8.136C1651.83 7.73067 1651.36 7.528 1650.76 7.528C1650.14 7.528 1649.51 7.72 1648.87 8.104C1648.26 8.46667 1647.67 8.95733 1647.11 9.576V25H1645.42Z" fill="white"/>
<path d="M1713.02 25.288C1711.57 25.288 1710.41 24.8187 1709.56 23.88C1708.71 22.92 1708.22 21.6293 1708.09 20.008L1709.53 19.592C1709.63 21.1493 1709.99 22.28 1710.58 22.984C1711.2 23.6667 1712.03 24.008 1713.08 24.008C1714.02 24.008 1714.74 23.752 1715.26 23.24C1715.77 22.7067 1716.02 21.96 1716.02 21C1716.02 20.3387 1715.8 19.656 1715.35 18.952C1714.93 18.2267 1714.24 17.4693 1713.3 16.68L1711.16 14.856C1710.24 14.0667 1709.57 13.32 1709.14 12.616C1708.72 11.8907 1708.5 11.0693 1708.5 10.152C1708.5 9.29867 1708.67 8.584 1709.02 8.008C1709.38 7.432 1709.87 6.99467 1710.49 6.696C1711.13 6.376 1711.86 6.216 1712.7 6.216C1714.08 6.216 1715.12 6.65333 1715.8 7.528C1716.48 8.40267 1716.85 9.576 1716.89 11.048L1715.64 11.432C1715.62 10.472 1715.48 9.704 1715.22 9.128C1714.99 8.552 1714.66 8.136 1714.23 7.88C1713.83 7.624 1713.35 7.496 1712.79 7.496C1711.98 7.496 1711.32 7.70933 1710.81 8.136C1710.32 8.54133 1710.07 9.14933 1710.07 9.96C1710.07 10.6427 1710.2 11.24 1710.46 11.752C1710.73 12.2427 1711.23 12.8187 1711.96 13.48L1714.17 15.432C1714.72 15.9013 1715.26 16.4027 1715.77 16.936C1716.28 17.4693 1716.7 18.0667 1717.02 18.728C1717.36 19.368 1717.53 20.136 1717.53 21.032C1717.53 21.928 1717.34 22.696 1716.95 23.336C1716.59 23.9547 1716.07 24.4347 1715.38 24.776C1714.72 25.1173 1713.93 25.288 1713.02 25.288Z" fill="white"/>
<path d="M1724.29 25.192C1723.44 25.192 1722.8 25.0213 1722.37 24.68C1721.95 24.3387 1721.67 23.88 1721.54 23.304C1721.41 22.728 1721.35 22.0773 1721.35 21.352V7.624H1718.92V6.504H1721.35V0.584H1723.05V6.504H1726.18V7.624H1723.05V21.128C1723.05 22.1307 1723.14 22.8347 1723.33 23.24C1723.53 23.6453 1723.96 23.848 1724.65 23.848C1724.86 23.848 1725.08 23.8373 1725.32 23.816C1725.57 23.7733 1725.81 23.7307 1726.02 23.688V25C1725.77 25.064 1725.48 25.1067 1725.16 25.128C1724.84 25.1707 1724.55 25.192 1724.29 25.192Z" fill="white"/>
<path d="M1731.74 25.288C1730.99 25.288 1730.34 25.1173 1729.79 24.776C1729.23 24.4347 1728.8 23.9653 1728.48 23.368C1728.18 22.7493 1728.03 22.0453 1728.03 21.256C1728.03 20.4667 1728.12 19.784 1728.32 19.208C1728.53 18.6107 1728.9 18.056 1729.44 17.544C1729.97 17.032 1730.73 16.4987 1731.71 15.944C1732.71 15.368 1734 14.7067 1735.58 13.96V12.648C1735.58 11.304 1735.5 10.2587 1735.32 9.512C1735.18 8.76533 1734.91 8.24266 1734.52 7.944C1734.16 7.64533 1733.66 7.496 1733.02 7.496C1732.53 7.496 1732.06 7.58133 1731.61 7.752C1731.16 7.92267 1730.79 8.264 1730.49 8.776C1730.22 9.26667 1730.08 10.0027 1730.08 10.984V11.464H1728.41C1728.41 9.69333 1728.76 8.38133 1729.47 7.528C1730.19 6.65333 1731.4 6.216 1733.08 6.216C1734.64 6.216 1735.73 6.70667 1736.35 7.688C1736.97 8.66933 1737.28 10.2587 1737.28 12.456V21.768C1737.28 21.9387 1737.28 22.2693 1737.28 22.76C1737.3 23.2293 1737.31 23.688 1737.31 24.136C1737.33 24.584 1737.35 24.872 1737.37 25H1735.9C1735.86 24.552 1735.8 24.0827 1735.74 23.592C1735.68 23.1013 1735.63 22.7493 1735.61 22.536C1735.34 23.304 1734.86 23.9547 1734.17 24.488C1733.49 25.0213 1732.68 25.288 1731.74 25.288ZM1732.16 23.88C1732.69 23.88 1733.17 23.7627 1733.6 23.528C1734.02 23.272 1734.41 22.952 1734.75 22.568C1735.09 22.1627 1735.37 21.736 1735.58 21.288V15.208C1734.45 15.8053 1733.5 16.3173 1732.73 16.744C1731.99 17.1707 1731.39 17.576 1730.94 17.96C1730.51 18.344 1730.2 18.7813 1730.01 19.272C1729.82 19.7413 1729.72 20.3173 1729.72 21C1729.72 22.1093 1729.98 22.8667 1730.49 23.272C1731 23.6773 1731.56 23.88 1732.16 23.88Z" fill="white"/>
<path d="M1744.76 25.192C1743.91 25.192 1743.27 25.0213 1742.84 24.68C1742.42 24.3387 1742.14 23.88 1742.01 23.304C1741.88 22.728 1741.82 22.0773 1741.82 21.352V7.624H1739.39V6.504H1741.82V0.584H1743.52V6.504H1746.65V7.624H1743.52V21.128C1743.52 22.1307 1743.61 22.8347 1743.8 23.24C1743.99 23.6453 1744.43 23.848 1745.11 23.848C1745.33 23.848 1745.55 23.8373 1745.79 23.816C1746.04 23.7733 1746.28 23.7307 1746.49 23.688V25C1746.23 25.064 1745.95 25.1067 1745.63 25.128C1745.31 25.1707 1745.02 25.192 1744.76 25.192Z" fill="white"/>
<path d="M1749.36 25V6.504H1751.09V25H1749.36ZM1749.36 4.072V1.128H1751.09V4.072H1749.36Z" fill="white"/>
<path d="M1759.46 25.288C1758.24 25.288 1757.29 25.0213 1756.61 24.488C1755.95 23.9547 1755.48 23.1653 1755.2 22.12C1754.94 21.0747 1754.82 19.784 1754.82 18.248V13.256C1754.82 11.72 1754.94 10.4293 1755.2 9.384C1755.48 8.33867 1755.95 7.54933 1756.61 7.016C1757.29 6.48267 1758.24 6.216 1759.46 6.216C1760.69 6.216 1761.64 6.48267 1762.3 7.016C1762.99 7.54933 1763.46 8.33867 1763.71 9.384C1763.99 10.408 1764.13 11.6987 1764.13 13.256V18.248C1764.13 19.784 1763.99 21.0747 1763.71 22.12C1763.46 23.1653 1762.99 23.9547 1762.3 24.488C1761.64 25.0213 1760.69 25.288 1759.46 25.288ZM1759.46 24.008C1760.35 24.008 1761.01 23.784 1761.44 23.336C1761.87 22.8667 1762.13 22.2053 1762.24 21.352C1762.37 20.4987 1762.43 19.4853 1762.43 18.312V13.192C1762.43 11.9973 1762.37 10.984 1762.24 10.152C1762.13 9.29867 1761.87 8.648 1761.44 8.2C1761.01 7.73067 1760.35 7.496 1759.46 7.496C1758.56 7.496 1757.9 7.73067 1757.47 8.2C1757.07 8.648 1756.8 9.29867 1756.67 10.152C1756.57 10.984 1756.51 11.9973 1756.51 13.192V18.312C1756.51 19.4853 1756.57 20.4987 1756.67 21.352C1756.8 22.2053 1757.07 22.8667 1757.47 23.336C1757.9 23.784 1758.56 24.008 1759.46 24.008Z" fill="white"/>
<path d="M1767.42 25V6.504H1769.11V8.488C1769.69 7.80533 1770.35 7.26133 1771.1 6.856C1771.84 6.42933 1772.64 6.216 1773.5 6.216C1774.05 6.216 1774.54 6.35467 1774.97 6.632C1775.42 6.888 1775.77 7.31467 1776.03 7.912C1776.28 8.488 1776.41 9.26667 1776.41 10.248V25H1774.71V10.44C1774.71 9.30933 1774.53 8.54133 1774.17 8.136C1773.83 7.73067 1773.36 7.528 1772.76 7.528C1772.14 7.528 1771.51 7.72 1770.87 8.104C1770.26 8.46667 1769.67 8.95733 1769.11 9.576V25H1767.42Z" fill="white"/>
<path d="M1835.02 25.288C1833.57 25.288 1832.41 24.8187 1831.56 23.88C1830.71 22.92 1830.22 21.6293 1830.09 20.008L1831.53 19.592C1831.63 21.1493 1831.99 22.28 1832.58 22.984C1833.2 23.6667 1834.03 24.008 1835.08 24.008C1836.02 24.008 1836.74 23.752 1837.26 23.24C1837.77 22.7067 1838.02 21.96 1838.02 21C1838.02 20.3387 1837.8 19.656 1837.35 18.952C1836.93 18.2267 1836.24 17.4693 1835.3 16.68L1833.16 14.856C1832.24 14.0667 1831.57 13.32 1831.14 12.616C1830.72 11.8907 1830.5 11.0693 1830.5 10.152C1830.5 9.29867 1830.67 8.584 1831.02 8.008C1831.38 7.432 1831.87 6.99467 1832.49 6.696C1833.13 6.376 1833.86 6.216 1834.7 6.216C1836.08 6.216 1837.12 6.65333 1837.8 7.528C1838.48 8.40267 1838.85 9.576 1838.89 11.048L1837.64 11.432C1837.62 10.472 1837.48 9.704 1837.22 9.128C1836.99 8.552 1836.66 8.136 1836.23 7.88C1835.83 7.624 1835.35 7.496 1834.79 7.496C1833.98 7.496 1833.32 7.70933 1832.81 8.136C1832.32 8.54133 1832.07 9.14933 1832.07 9.96C1832.07 10.6427 1832.2 11.24 1832.46 11.752C1832.73 12.2427 1833.23 12.8187 1833.96 13.48L1836.17 15.432C1836.72 15.9013 1837.26 16.4027 1837.77 16.936C1838.28 17.4693 1838.7 18.0667 1839.02 18.728C1839.36 19.368 1839.53 20.136 1839.53 21.032C1839.53 21.928 1839.34 22.696 1838.95 23.336C1838.59 23.9547 1838.07 24.4347 1837.38 24.776C1836.72 25.1173 1835.93 25.288 1835.02 25.288Z" fill="white"/>
<path d="M1846.29 25.192C1845.44 25.192 1844.8 25.0213 1844.37 24.68C1843.95 24.3387 1843.67 23.88 1843.54 23.304C1843.41 22.728 1843.35 22.0773 1843.35 21.352V7.624H1840.92V6.504H1843.35V0.584H1845.05V6.504H1848.18V7.624H1845.05V21.128C1845.05 22.1307 1845.14 22.8347 1845.33 23.24C1845.53 23.6453 1845.96 23.848 1846.65 23.848C1846.86 23.848 1847.08 23.8373 1847.32 23.816C1847.57 23.7733 1847.81 23.7307 1848.02 23.688V25C1847.77 25.064 1847.48 25.1067 1847.16 25.128C1846.84 25.1707 1846.55 25.192 1846.29 25.192Z" fill="white"/>
<path d="M1853.74 25.288C1852.99 25.288 1852.34 25.1173 1851.79 24.776C1851.23 24.4347 1850.8 23.9653 1850.48 23.368C1850.18 22.7493 1850.03 22.0453 1850.03 21.256C1850.03 20.4667 1850.12 19.784 1850.32 19.208C1850.53 18.6107 1850.9 18.056 1851.44 17.544C1851.97 17.032 1852.73 16.4987 1853.71 15.944C1854.71 15.368 1856 14.7067 1857.58 13.96V12.648C1857.58 11.304 1857.5 10.2587 1857.32 9.512C1857.18 8.76533 1856.91 8.24266 1856.52 7.944C1856.16 7.64533 1855.66 7.496 1855.02 7.496C1854.53 7.496 1854.06 7.58133 1853.61 7.752C1853.16 7.92267 1852.79 8.264 1852.49 8.776C1852.22 9.26667 1852.08 10.0027 1852.08 10.984V11.464H1850.41C1850.41 9.69333 1850.76 8.38133 1851.47 7.528C1852.19 6.65333 1853.4 6.216 1855.08 6.216C1856.64 6.216 1857.73 6.70667 1858.35 7.688C1858.97 8.66933 1859.28 10.2587 1859.28 12.456V21.768C1859.28 21.9387 1859.28 22.2693 1859.28 22.76C1859.3 23.2293 1859.31 23.688 1859.31 24.136C1859.33 24.584 1859.35 24.872 1859.37 25H1857.9C1857.86 24.552 1857.8 24.0827 1857.74 23.592C1857.68 23.1013 1857.63 22.7493 1857.61 22.536C1857.34 23.304 1856.86 23.9547 1856.17 24.488C1855.49 25.0213 1854.68 25.288 1853.74 25.288ZM1854.16 23.88C1854.69 23.88 1855.17 23.7627 1855.6 23.528C1856.02 23.272 1856.41 22.952 1856.75 22.568C1857.09 22.1627 1857.37 21.736 1857.58 21.288V15.208C1856.45 15.8053 1855.5 16.3173 1854.73 16.744C1853.99 17.1707 1853.39 17.576 1852.94 17.96C1852.51 18.344 1852.2 18.7813 1852.01 19.272C1851.82 19.7413 1851.72 20.3173 1851.72 21C1851.72 22.1093 1851.98 22.8667 1852.49 23.272C1853 23.6773 1853.56 23.88 1854.16 23.88Z" fill="white"/>
<path d="M1866.76 25.192C1865.91 25.192 1865.27 25.0213 1864.84 24.68C1864.42 24.3387 1864.14 23.88 1864.01 23.304C1863.88 22.728 1863.82 22.0773 1863.82 21.352V7.624H1861.39V6.504H1863.82V0.584H1865.52V6.504H1868.65V7.624H1865.52V21.128C1865.52 22.1307 1865.61 22.8347 1865.8 23.24C1865.99 23.6453 1866.43 23.848 1867.11 23.848C1867.33 23.848 1867.55 23.8373 1867.79 23.816C1868.04 23.7733 1868.28 23.7307 1868.49 23.688V25C1868.23 25.064 1867.95 25.1067 1867.63 25.128C1867.31 25.1707 1867.02 25.192 1866.76 25.192Z" fill="white"/>
<path d="M1871.36 25V6.504H1873.09V25H1871.36ZM1871.36 4.072V1.128H1873.09V4.072H1871.36Z" fill="white"/>
<path d="M1881.46 25.288C1880.24 25.288 1879.29 25.0213 1878.61 24.488C1877.95 23.9547 1877.48 23.1653 1877.2 22.12C1876.94 21.0747 1876.82 19.784 1876.82 18.248V13.256C1876.82 11.72 1876.94 10.4293 1877.2 9.384C1877.48 8.33867 1877.95 7.54933 1878.61 7.016C1879.29 6.48267 1880.24 6.216 1881.46 6.216C1882.69 6.216 1883.64 6.48267 1884.3 7.016C1884.99 7.54933 1885.46 8.33867 1885.71 9.384C1885.99 10.408 1886.13 11.6987 1886.13 13.256V18.248C1886.13 19.784 1885.99 21.0747 1885.71 22.12C1885.46 23.1653 1884.99 23.9547 1884.3 24.488C1883.64 25.0213 1882.69 25.288 1881.46 25.288ZM1881.46 24.008C1882.35 24.008 1883.01 23.784 1883.44 23.336C1883.87 22.8667 1884.13 22.2053 1884.24 21.352C1884.37 20.4987 1884.43 19.4853 1884.43 18.312V13.192C1884.43 11.9973 1884.37 10.984 1884.24 10.152C1884.13 9.29867 1883.87 8.648 1883.44 8.2C1883.01 7.73067 1882.35 7.496 1881.46 7.496C1880.56 7.496 1879.9 7.73067 1879.47 8.2C1879.07 8.648 1878.8 9.29867 1878.67 10.152C1878.57 10.984 1878.51 11.9973 1878.51 13.192V18.312C1878.51 19.4853 1878.57 20.4987 1878.67 21.352C1878.8 22.2053 1879.07 22.8667 1879.47 23.336C1879.9 23.784 1880.56 24.008 1881.46 24.008Z" fill="white"/>
<path d="M1889.42 25V6.504H1891.11V8.488C1891.69 7.80533 1892.35 7.26133 1893.1 6.856C1893.84 6.42933 1894.64 6.216 1895.5 6.216C1896.05 6.216 1896.54 6.35467 1896.97 6.632C1897.42 6.888 1897.77 7.31467 1898.03 7.912C1898.28 8.488 1898.41 9.26667 1898.41 10.248V25H1896.71V10.44C1896.71 9.30933 1896.53 8.54133 1896.17 8.136C1895.83 7.73067 1895.36 7.528 1894.76 7.528C1894.14 7.528 1893.51 7.72 1892.87 8.104C1892.26 8.46667 1891.67 8.95733 1891.11 9.576V25H1889.42Z" fill="white"/>
</svg>
