<svg width="50" height="50" viewBox="0 0 50 50" fill="none" xmlns="http://www.w3.org/2000/svg" preserveAspectRatio="none">
<path d="M21.7285 6.5332L23.8965 4.36523C24.8145 3.44727 26.2988 3.44727 27.207 4.36523L46.1914 23.3398C47.1094 24.2578 47.1094 25.7422 46.1914 26.6504L27.207 45.6348C26.2891 46.5527 24.8047 46.5527 23.8965 45.6348L21.7285 43.4668C20.8008 42.5391 20.8203 41.0254 21.7676 40.1172L33.5352 28.9063H5.46875C4.16992 28.9063 3.125 27.8613 3.125 26.5625V23.4375C3.125 22.1387 4.16992 21.0938 5.46875 21.0938H33.5352L21.7676 9.88281C20.8105 8.97461 20.791 7.46094 21.7285 6.5332Z" fill="white"/>
</svg>
