<svg width="60" height="30" viewBox="0 0 60 30" fill="none" xmlns="http://www.w3.org/2000/svg">
<path d="M0 19.6552L8.41584 0H11.5347L20 19.6552H17.2772L15.198 14.2197H4.80198L2.67327 19.6552H0ZM5.19802 13.249H14.8515L10 1.60153L5.19802 13.249Z" fill="white"/>
<path d="M4.32776 30C3.05379 30 2.0421 29.8231 1.29271 29.4694C0.543312 29.1076 0.112409 28.6211 0 28.0101L1.2646 27.8533C1.35828 28.4402 1.6674 28.8664 2.19198 29.1317C2.73529 29.389 3.46595 29.5176 4.38396 29.5176C5.2083 29.5176 5.84528 29.4211 6.29492 29.2282C6.74456 29.0272 6.96938 28.7458 6.96938 28.384C6.96938 28.1347 6.77266 27.8774 6.37923 27.6121C6.00453 27.3387 5.40501 27.0533 4.58068 26.7558L2.69782 26.0684C1.89222 25.7709 1.30207 25.4895 0.927377 25.2242C0.552679 24.9509 0.36533 24.6413 0.36533 24.2956C0.36533 23.974 0.515209 23.7047 0.814967 23.4876C1.13346 23.2705 1.56436 23.1057 2.10767 22.9931C2.66972 22.8725 3.31607 22.8122 4.04673 22.8122C5.2645 22.8122 6.17314 22.977 6.77266 23.3067C7.37218 23.6363 7.69067 24.0785 7.72814 24.6333L6.63215 24.778C6.61341 24.4162 6.49164 24.1268 6.26682 23.9097C6.06073 23.6926 5.77034 23.5358 5.39565 23.4393C5.03968 23.3429 4.61815 23.2946 4.13104 23.2946C3.41912 23.2946 2.83833 23.375 2.3887 23.5358C1.9578 23.6886 1.74234 23.9177 1.74234 24.2232C1.74234 24.4805 1.85475 24.7056 2.07957 24.8986C2.32313 25.0835 2.7634 25.3006 3.40038 25.5498L5.33944 26.2855C5.82655 26.4624 6.29492 26.6513 6.74456 26.8523C7.19419 27.0533 7.55953 27.2784 7.84055 27.5277C8.14031 27.7689 8.29019 28.0583 8.29019 28.396C8.29019 28.7337 8.12157 29.0231 7.78434 29.2643C7.46585 29.4975 7.00685 29.6784 6.40733 29.807C5.82655 29.9357 5.13336 30 4.32776 30Z" fill="white"/>
<path d="M14.2323 29.9638C13.4829 29.9638 12.9208 29.8995 12.5462 29.7709C12.1715 29.6422 11.9279 29.4694 11.8155 29.2523C11.7031 29.0352 11.6469 28.79 11.6469 28.5166V23.3429H9.5111V22.9208H11.6469V20.6897H13.1363V22.9208H15.8903V23.3429H13.1363V28.4322C13.1363 28.8101 13.2206 29.0754 13.3892 29.2282C13.5578 29.3809 13.9419 29.4573 14.5414 29.4573C14.7288 29.4573 14.9255 29.4533 15.1316 29.4452C15.3564 29.4292 15.5625 29.4131 15.7498 29.397V29.8915C15.525 29.9156 15.2721 29.9317 14.9911 29.9397C14.71 29.9558 14.4571 29.9638 14.2323 29.9638Z" fill="white"/>
<path d="M20.7716 30C20.1158 30 19.5444 29.9357 19.0573 29.807C18.5702 29.6784 18.1862 29.5015 17.9051 29.2764C17.6428 29.0432 17.5117 28.7779 17.5117 28.4804C17.5117 28.183 17.596 27.9257 17.7646 27.7086C17.952 27.4835 18.2798 27.2744 18.7482 27.0815C19.2166 26.8885 19.8817 26.6875 20.7435 26.4785C21.624 26.2614 22.7575 26.0121 24.1439 25.7307V25.2363C24.1439 24.7298 24.0689 24.3358 23.919 24.0544C23.7879 23.773 23.5537 23.576 23.2165 23.4635C22.898 23.3509 22.4577 23.2946 21.8957 23.2946C21.4648 23.2946 21.0526 23.3268 20.6592 23.3911C20.2657 23.4554 19.9379 23.5841 19.6756 23.777C19.432 23.9619 19.3102 24.2393 19.3102 24.6092V24.7901H17.8489C17.8489 24.1227 18.1581 23.6283 18.7763 23.3067C19.4133 22.977 20.4718 22.8122 21.9519 22.8122C23.3195 22.8122 24.275 22.9971 24.8183 23.367C25.3616 23.7368 25.6333 24.3358 25.6333 25.1639V28.6734C25.6333 28.7377 25.6333 28.8623 25.6333 29.0473C25.652 29.2241 25.6614 29.397 25.6614 29.5658C25.6801 29.7347 25.6988 29.8432 25.7176 29.8915H24.4249C24.3874 29.7226 24.3406 29.5457 24.2844 29.3608C24.2282 29.1759 24.1907 29.0432 24.1719 28.9628C23.9284 29.2523 23.5069 29.4975 22.9073 29.6985C22.3078 29.8995 21.5959 30 20.7716 30ZM21.1369 29.4694C21.6053 29.4694 22.0268 29.4251 22.4015 29.3367C22.7762 29.2402 23.1134 29.1196 23.4132 28.9749C23.7129 28.8221 23.9565 28.6613 24.1439 28.4925V26.2011C23.1509 26.4262 22.3172 26.6192 21.6427 26.78C20.987 26.9408 20.4624 27.0935 20.069 27.2382C19.6943 27.383 19.4227 27.5478 19.254 27.7327C19.0854 27.9096 19.0011 28.1267 19.0011 28.384C19.0011 28.802 19.2259 29.0875 19.6756 29.2402C20.1252 29.393 20.6123 29.4694 21.1369 29.4694Z" fill="white"/>
<path d="M32.2079 29.9638C31.4585 29.9638 30.8965 29.8995 30.5218 29.7709C30.1471 29.6422 29.9035 29.4694 29.7911 29.2523C29.6787 29.0352 29.6225 28.79 29.6225 28.5166V23.3429H27.4867V22.9208H29.6225V20.6897H31.1119V22.9208H33.8659V23.3429H31.1119V28.4322C31.1119 28.8101 31.1962 29.0754 31.3648 29.2282C31.5334 29.3809 31.9175 29.4573 32.517 29.4573C32.7044 29.4573 32.9011 29.4533 33.1072 29.4452C33.332 29.4292 33.5381 29.4131 33.7254 29.397V29.8915C33.5006 29.9156 33.2477 29.9317 32.9667 29.9397C32.6856 29.9558 32.4327 29.9638 32.2079 29.9638Z" fill="white"/>
<path d="M36.2461 29.8915V22.9208H37.7636V29.8915H36.2461ZM36.2461 22.0042V20.8947H37.7636V22.0042H36.2461Z" fill="white"/>
<path d="M45.111 30C44.0431 30 43.2094 29.8995 42.6099 29.6985C42.0291 29.4975 41.617 29.2 41.3734 28.8061C41.1486 28.4121 41.0362 27.9257 41.0362 27.3468V25.4654C41.0362 24.8865 41.1486 24.4001 41.3734 24.0062C41.617 23.6122 42.0291 23.3147 42.6099 23.1137C43.2094 22.9127 44.0431 22.8122 45.111 22.8122C46.1977 22.8122 47.0314 22.9127 47.6121 23.1137C48.2117 23.3147 48.6238 23.6122 48.8486 24.0062C49.0922 24.3921 49.214 24.8785 49.214 25.4654V27.3468C49.214 27.9257 49.0922 28.4121 48.8486 28.8061C48.6238 29.2 48.2117 29.4975 47.6121 29.6985C47.0314 29.8995 46.1977 30 45.111 30ZM45.111 29.5176C45.8979 29.5176 46.4787 29.4332 46.8534 29.2643C47.2281 29.0875 47.4623 28.8382 47.5559 28.5166C47.6684 28.195 47.7246 27.8131 47.7246 27.3709V25.4413C47.7246 24.9911 47.6684 24.6092 47.5559 24.2956C47.4623 23.974 47.2281 23.7288 46.8534 23.5599C46.4787 23.3831 45.8979 23.2946 45.111 23.2946C44.3242 23.2946 43.7434 23.3831 43.3687 23.5599C43.0127 23.7288 42.7785 23.974 42.6661 24.2956C42.5725 24.6092 42.5256 24.9911 42.5256 25.4413V27.3709C42.5256 27.8131 42.5725 28.195 42.6661 28.5166C42.7785 28.8382 43.0127 29.0875 43.3687 29.2643C43.7434 29.4332 44.3242 29.5176 45.111 29.5176Z" fill="white"/>
<path d="M52.1032 29.8915V22.9208H53.5927V23.6685C54.0985 23.4112 54.6793 23.2062 55.335 23.0534C55.9907 22.8926 56.6933 22.8122 57.4427 22.8122C57.9298 22.8122 58.3607 22.8645 58.7354 22.969C59.1288 23.0655 59.438 23.2263 59.6628 23.4514C59.8876 23.6685 60 23.9619 60 24.3318V29.8915H58.5106V24.4041C58.5106 23.978 58.3513 23.6886 58.0328 23.5358C57.7331 23.3831 57.3209 23.3067 56.7963 23.3067C56.253 23.3067 55.7003 23.379 55.1383 23.5238C54.595 23.6604 54.0798 23.8454 53.5927 24.0785V29.8915H52.1032Z" fill="white"/>
<path d="M20 19.6552V0H30.1818C32.6753 0 34.5801 0.218391 35.8961 0.655173C37.2468 1.07578 38.1645 1.65815 38.6494 2.4023C39.1688 3.13027 39.4286 3.94721 39.4286 4.85313C39.4286 5.5811 39.2554 6.27671 38.9091 6.93997C38.5974 7.60324 37.9913 8.16943 37.0909 8.63857C36.2251 9.09153 34.9437 9.38272 33.2468 9.51213L40 19.6552H37.1948L30.6494 9.75479H22.8052V19.6552H20ZM22.8052 8.73563H30.0779C31.8788 8.73563 33.2468 8.58195 34.1818 8.27459C35.1169 7.95104 35.7576 7.49809 36.1039 6.91571C36.4848 6.33333 36.6753 5.64581 36.6753 4.85313C36.6753 3.60749 36.2251 2.66113 35.3247 2.01405C34.4589 1.36697 32.6926 1.04342 30.026 1.04342H22.8052V8.73563Z" fill="white"/>
<path d="M48.6631 19.6552V1.06769H40V0H60V1.06769H51.5508V19.6552H48.6631Z" fill="white"/>
</svg>
